<mxfile host="app.diagrams.net" modified="2022-03-25T15:07:26.642Z" agent="5.0 (X11; CrOS x86_64 14469.41.0) AppleWebKit/537.36 (KHTML, like Gecko) Chrome/99.0.4844.57 Safari/537.36" etag="xElkh-KyLp1LRRBK_dJR" version="17.2.3" type="github" pages="8">
  <diagram id="jcYgBPrr2LkxAo5qrb-7" name="Introduction">
    <mxGraphModel dx="868" dy="486" grid="1" gridSize="10" guides="1" tooltips="1" connect="1" arrows="1" fold="1" page="1" pageScale="1" pageWidth="827" pageHeight="1169" math="0" shadow="0">
      <root>
        <mxCell id="0" />
        <mxCell id="1" parent="0" />
        <mxCell id="95c3biCn2HsyvcuyQn4m-2" value="&lt;font style=&quot;font-size: 23px&quot;&gt;この機体は４個のカラーセンサーを機体前方に並べて配置し、&lt;br&gt;最前部にタッチセンサを搭載したものとする。&lt;br&gt;&lt;br&gt;4個のカラーセンサーを機体を上から見たときの&lt;br&gt;左からS1, S2, S3, S4とする。&lt;br&gt;&lt;/font&gt;" style="text;html=1;strokeColor=none;fillColor=none;align=center;verticalAlign=middle;whiteSpace=wrap;rounded=0;fontFamily=Zen Kurenaido;fontSource=https%3A%2F%2Ffonts.googleapis.com%2Fcss%3Ffamily%3DZen%2BKurenaido;" parent="1" vertex="1">
          <mxGeometry x="40" y="80" width="760" height="240" as="geometry" />
        </mxCell>
      </root>
    </mxGraphModel>
  </diagram>
  <diagram id="ClkvROt4qy4VRxGnbu0m" name="main">
    <mxGraphModel dx="2031" dy="1143" grid="1" gridSize="10" guides="1" tooltips="1" connect="1" arrows="1" fold="1" page="1" pageScale="1" pageWidth="900" pageHeight="1600" math="0" shadow="0">
      <root>
        <mxCell id="veqoH-x-ZnqVkIVaN_2g-0" />
        <mxCell id="veqoH-x-ZnqVkIVaN_2g-1" parent="veqoH-x-ZnqVkIVaN_2g-0" />
        <mxCell id="veqoH-x-ZnqVkIVaN_2g-8" style="edgeStyle=orthogonalEdgeStyle;rounded=0;orthogonalLoop=1;jettySize=auto;html=1;exitX=0.5;exitY=1;exitDx=0;exitDy=0;entryX=0.5;entryY=0;entryDx=0;entryDy=0;fontFamily=Dancing Script;fontSource=https%3A%2F%2Ffonts.googleapis.com%2Fcss%3Ffamily%3DDancing%2BScript;fontSize=55;" parent="veqoH-x-ZnqVkIVaN_2g-1" source="veqoH-x-ZnqVkIVaN_2g-2" target="veqoH-x-ZnqVkIVaN_2g-7" edge="1">
          <mxGeometry relative="1" as="geometry" />
        </mxCell>
        <mxCell id="veqoH-x-ZnqVkIVaN_2g-2" value="&lt;font data-font-src=&quot;https://fonts.googleapis.com/css?family=Dancing+Script&quot; style=&quot;font-size: 55px&quot; face=&quot;Dancing Script&quot;&gt;Forever&lt;/font&gt;" style="shape=loopLimit;whiteSpace=wrap;html=1;size=40;rounded=0;" parent="veqoH-x-ZnqVkIVaN_2g-1" vertex="1">
          <mxGeometry x="20" y="320" width="550" height="100" as="geometry" />
        </mxCell>
        <mxCell id="veqoH-x-ZnqVkIVaN_2g-5" style="edgeStyle=orthogonalEdgeStyle;rounded=0;orthogonalLoop=1;jettySize=auto;html=1;exitX=0.5;exitY=1;exitDx=0;exitDy=0;entryX=0.5;entryY=0;entryDx=0;entryDy=0;fontFamily=Dancing Script;fontSource=https%3A%2F%2Ffonts.googleapis.com%2Fcss%3Ffamily%3DDancing%2BScript;fontSize=38;" parent="veqoH-x-ZnqVkIVaN_2g-1" source="veqoH-x-ZnqVkIVaN_2g-4" target="veqoH-x-ZnqVkIVaN_2g-2" edge="1">
          <mxGeometry relative="1" as="geometry" />
        </mxCell>
        <mxCell id="veqoH-x-ZnqVkIVaN_2g-4" value="&lt;div&gt;&lt;span style=&quot;font-family: &amp;#34;zen kurenaido&amp;#34;&quot;&gt;&lt;font style=&quot;font-size: 30px&quot;&gt;ボタンが押されるまで待つ&lt;/font&gt;&lt;/span&gt;&lt;/div&gt;" style="rounded=0;whiteSpace=wrap;html=1;fontFamily=Dancing Script;fontSource=https%3A%2F%2Ffonts.googleapis.com%2Fcss%3Ffamily%3DDancing%2BScript;fontSize=38;spacing=2;verticalAlign=middle;align=center;" parent="veqoH-x-ZnqVkIVaN_2g-1" vertex="1">
          <mxGeometry x="70" y="180" width="450" height="80" as="geometry" />
        </mxCell>
        <mxCell id="veqoH-x-ZnqVkIVaN_2g-11" style="edgeStyle=orthogonalEdgeStyle;rounded=0;orthogonalLoop=1;jettySize=auto;html=1;exitX=1;exitY=0.5;exitDx=0;exitDy=0;entryX=0;entryY=0.5;entryDx=0;entryDy=0;fontFamily=Zen Kurenaido;fontSource=https%3A%2F%2Ffonts.googleapis.com%2Fcss%3Ffamily%3DZen%2BKurenaido;fontSize=30;" parent="veqoH-x-ZnqVkIVaN_2g-1" source="veqoH-x-ZnqVkIVaN_2g-7" target="veqoH-x-ZnqVkIVaN_2g-10" edge="1">
          <mxGeometry relative="1" as="geometry" />
        </mxCell>
        <mxCell id="eDNz1TK98uui8Gx16TL9-0" style="edgeStyle=orthogonalEdgeStyle;rounded=0;orthogonalLoop=1;jettySize=auto;html=1;exitX=0.5;exitY=1;exitDx=0;exitDy=0;entryX=0.5;entryY=0;entryDx=0;entryDy=0;fontFamily=Zen Kurenaido;fontSource=https%3A%2F%2Ffonts.googleapis.com%2Fcss%3Ffamily%3DZen%2BKurenaido;fontSize=30;" parent="veqoH-x-ZnqVkIVaN_2g-1" source="veqoH-x-ZnqVkIVaN_2g-7" target="CvUFFqk8p88dNU25HqTK-9" edge="1">
          <mxGeometry relative="1" as="geometry" />
        </mxCell>
        <mxCell id="veqoH-x-ZnqVkIVaN_2g-7" value="" style="rhombus;whiteSpace=wrap;html=1;fontFamily=Dancing Script;fontSource=https%3A%2F%2Ffonts.googleapis.com%2Fcss%3Ffamily%3DDancing%2BScript;fontSize=55;verticalAlign=middle;horizontal=1;rounded=0;" parent="veqoH-x-ZnqVkIVaN_2g-1" vertex="1">
          <mxGeometry x="95" y="480" width="400" height="150" as="geometry" />
        </mxCell>
        <mxCell id="veqoH-x-ZnqVkIVaN_2g-9" value="&lt;span style=&quot;font-size: 30px&quot;&gt;&lt;font face=&quot;Zen Kurenaido&quot; data-font-src=&quot;https://fonts.googleapis.com/css?family=Zen+Kurenaido&quot;&gt;タッチセンサー&lt;br&gt;が反応&lt;/font&gt;&lt;/span&gt;" style="text;html=1;strokeColor=none;fillColor=none;align=center;verticalAlign=middle;whiteSpace=wrap;rounded=0;labelBackgroundColor=none;labelBorderColor=none;fontFamily=Dancing Script;fontSource=https%3A%2F%2Ffonts.googleapis.com%2Fcss%3Ffamily%3DDancing%2BScript;fontSize=18;" parent="veqoH-x-ZnqVkIVaN_2g-1" vertex="1">
          <mxGeometry x="125" y="510" width="340" height="90" as="geometry" />
        </mxCell>
        <mxCell id="veqoH-x-ZnqVkIVaN_2g-10" value="&lt;font style=&quot;font-size: 30px&quot; face=&quot;Zen Kurenaido&quot; data-font-src=&quot;https://fonts.googleapis.com/css?family=Zen+Kurenaido&quot;&gt;障害物回避&lt;/font&gt;" style="shape=process;whiteSpace=wrap;html=1;backgroundOutline=1;labelBackgroundColor=none;labelBorderColor=none;fontFamily=Dancing Script;fontSource=https%3A%2F%2Ffonts.googleapis.com%2Fcss%3Ffamily%3DDancing%2BScript;fontSize=18;rounded=0;" parent="veqoH-x-ZnqVkIVaN_2g-1" vertex="1">
          <mxGeometry x="580" y="515" width="250" height="80" as="geometry" />
        </mxCell>
        <mxCell id="veqoH-x-ZnqVkIVaN_2g-12" value="4個のカラーセンサーを&lt;br&gt;左からS1,S2,S3,S4&lt;br&gt;とする" style="text;html=1;strokeColor=none;fillColor=none;align=center;verticalAlign=middle;whiteSpace=wrap;rounded=0;labelBackgroundColor=none;labelBorderColor=none;fontFamily=Zen Kurenaido;fontSource=https%3A%2F%2Ffonts.googleapis.com%2Fcss%3Ffamily%3DZen%2BKurenaido;fontSize=30;" parent="veqoH-x-ZnqVkIVaN_2g-1" vertex="1">
          <mxGeometry x="542.5" y="20" width="325" height="140" as="geometry" />
        </mxCell>
        <mxCell id="veqoH-x-ZnqVkIVaN_2g-21" style="edgeStyle=orthogonalEdgeStyle;rounded=0;orthogonalLoop=1;jettySize=auto;html=1;exitX=0.5;exitY=1;exitDx=0;exitDy=0;entryX=0.5;entryY=0;entryDx=0;entryDy=0;fontFamily=Zen Kurenaido;fontSource=https%3A%2F%2Ffonts.googleapis.com%2Fcss%3Ffamily%3DZen%2BKurenaido;fontSize=30;" parent="veqoH-x-ZnqVkIVaN_2g-1" source="veqoH-x-ZnqVkIVaN_2g-14" target="veqoH-x-ZnqVkIVaN_2g-20" edge="1">
          <mxGeometry relative="1" as="geometry" />
        </mxCell>
        <mxCell id="veqoH-x-ZnqVkIVaN_2g-14" value="" style="rhombus;whiteSpace=wrap;html=1;fontFamily=Dancing Script;fontSource=https%3A%2F%2Ffonts.googleapis.com%2Fcss%3Ffamily%3DDancing%2BScript;fontSize=55;verticalAlign=middle;horizontal=1;rounded=0;" parent="veqoH-x-ZnqVkIVaN_2g-1" vertex="1">
          <mxGeometry x="95" y="890" width="400" height="150" as="geometry" />
        </mxCell>
        <mxCell id="veqoH-x-ZnqVkIVaN_2g-16" value="&lt;span&gt;S2が緑&lt;/span&gt;" style="text;html=1;strokeColor=none;fillColor=none;align=center;verticalAlign=middle;whiteSpace=wrap;rounded=0;labelBackgroundColor=none;labelBorderColor=none;fontFamily=Zen Kurenaido;fontSource=https%3A%2F%2Ffonts.googleapis.com%2Fcss%3Ffamily%3DZen%2BKurenaido;fontSize=30;" parent="veqoH-x-ZnqVkIVaN_2g-1" vertex="1">
          <mxGeometry x="210" y="920" width="170" height="90" as="geometry" />
        </mxCell>
        <mxCell id="veqoH-x-ZnqVkIVaN_2g-26" style="edgeStyle=orthogonalEdgeStyle;rounded=0;orthogonalLoop=1;jettySize=auto;html=1;exitX=1;exitY=0.5;exitDx=0;exitDy=0;entryX=0;entryY=0.5;entryDx=0;entryDy=0;fontFamily=Zen Kurenaido;fontSource=https%3A%2F%2Ffonts.googleapis.com%2Fcss%3Ffamily%3DZen%2BKurenaido;fontSize=30;" parent="veqoH-x-ZnqVkIVaN_2g-1" source="veqoH-x-ZnqVkIVaN_2g-20" target="veqoH-x-ZnqVkIVaN_2g-25" edge="1">
          <mxGeometry relative="1" as="geometry" />
        </mxCell>
        <mxCell id="veqoH-x-ZnqVkIVaN_2g-20" value="" style="rhombus;whiteSpace=wrap;html=1;fontFamily=Dancing Script;fontSource=https%3A%2F%2Ffonts.googleapis.com%2Fcss%3Ffamily%3DDancing%2BScript;fontSize=55;verticalAlign=middle;horizontal=1;rounded=0;" parent="veqoH-x-ZnqVkIVaN_2g-1" vertex="1">
          <mxGeometry x="95" y="1090" width="400" height="150" as="geometry" />
        </mxCell>
        <mxCell id="veqoH-x-ZnqVkIVaN_2g-37" style="edgeStyle=orthogonalEdgeStyle;rounded=0;orthogonalLoop=1;jettySize=auto;html=1;exitX=0.5;exitY=1;exitDx=0;exitDy=0;entryX=0.5;entryY=0;entryDx=0;entryDy=0;fontFamily=Dancing Script;fontSource=https%3A%2F%2Ffonts.googleapis.com%2Fcss%3Ffamily%3DDancing%2BScript;fontSize=45;" parent="veqoH-x-ZnqVkIVaN_2g-1" source="veqoH-x-ZnqVkIVaN_2g-22" target="veqoH-x-ZnqVkIVaN_2g-30" edge="1">
          <mxGeometry relative="1" as="geometry" />
        </mxCell>
        <mxCell id="veqoH-x-ZnqVkIVaN_2g-22" value="&lt;font style=&quot;font-size: 28px&quot;&gt;&lt;span&gt;S1反射光の減少量&lt;/span&gt;&lt;br&gt;&lt;span&gt;が一定以上&lt;/span&gt;&lt;/font&gt;" style="text;html=1;strokeColor=none;fillColor=none;align=center;verticalAlign=middle;whiteSpace=wrap;rounded=0;labelBackgroundColor=none;labelBorderColor=none;fontFamily=Zen Kurenaido;fontSource=https%3A%2F%2Ffonts.googleapis.com%2Fcss%3Ffamily%3DZen%2BKurenaido;fontSize=30;" parent="veqoH-x-ZnqVkIVaN_2g-1" vertex="1">
          <mxGeometry x="147.5" y="1090" width="295" height="150" as="geometry" />
        </mxCell>
        <mxCell id="veqoH-x-ZnqVkIVaN_2g-23" value="" style="edgeStyle=segmentEdgeStyle;endArrow=classic;html=1;rounded=0;fontFamily=Zen Kurenaido;fontSource=https%3A%2F%2Ffonts.googleapis.com%2Fcss%3Ffamily%3DZen%2BKurenaido;fontSize=30;exitX=1;exitY=0.5;exitDx=0;exitDy=0;entryX=0.5;entryY=0;entryDx=0;entryDy=0;" parent="veqoH-x-ZnqVkIVaN_2g-1" source="veqoH-x-ZnqVkIVaN_2g-14" target="veqoH-x-ZnqVkIVaN_2g-25" edge="1">
          <mxGeometry width="50" height="50" relative="1" as="geometry">
            <mxPoint x="540" y="950" as="sourcePoint" />
            <mxPoint x="740" y="1090" as="targetPoint" />
          </mxGeometry>
        </mxCell>
        <mxCell id="veqoH-x-ZnqVkIVaN_2g-25" value="&lt;font face=&quot;Zen Kurenaido&quot;&gt;&lt;span style=&quot;font-size: 30px&quot;&gt;左折&lt;/span&gt;&lt;/font&gt;" style="shape=process;whiteSpace=wrap;html=1;backgroundOutline=1;labelBackgroundColor=none;labelBorderColor=none;fontFamily=Dancing Script;fontSource=https%3A%2F%2Ffonts.googleapis.com%2Fcss%3Ffamily%3DDancing%2BScript;fontSize=18;rounded=0;" parent="veqoH-x-ZnqVkIVaN_2g-1" vertex="1">
          <mxGeometry x="580" y="1125" width="250" height="80" as="geometry" />
        </mxCell>
        <mxCell id="veqoH-x-ZnqVkIVaN_2g-28" style="edgeStyle=orthogonalEdgeStyle;rounded=0;orthogonalLoop=1;jettySize=auto;html=1;exitX=0.5;exitY=1;exitDx=0;exitDy=0;entryX=0.5;entryY=0;entryDx=0;entryDy=0;fontFamily=Dancing Script;fontSource=https%3A%2F%2Ffonts.googleapis.com%2Fcss%3Ffamily%3DDancing%2BScript;fontSize=45;" parent="veqoH-x-ZnqVkIVaN_2g-1" source="veqoH-x-ZnqVkIVaN_2g-27" target="veqoH-x-ZnqVkIVaN_2g-4" edge="1">
          <mxGeometry relative="1" as="geometry" />
        </mxCell>
        <mxCell id="veqoH-x-ZnqVkIVaN_2g-27" value="&lt;font face=&quot;Dancing Script&quot; data-font-src=&quot;https://fonts.googleapis.com/css?family=Dancing+Script&quot; style=&quot;font-size: 45px&quot;&gt;Start&lt;/font&gt;" style="rounded=0;whiteSpace=wrap;html=1;labelBackgroundColor=none;labelBorderColor=none;fontFamily=Zen Kurenaido;fontSource=https%3A%2F%2Ffonts.googleapis.com%2Fcss%3Ffamily%3DZen%2BKurenaido;fontSize=28;arcSize=50;" parent="veqoH-x-ZnqVkIVaN_2g-1" vertex="1">
          <mxGeometry x="170" y="30" width="250" height="90" as="geometry" />
        </mxCell>
        <mxCell id="veqoH-x-ZnqVkIVaN_2g-29" style="edgeStyle=orthogonalEdgeStyle;rounded=0;orthogonalLoop=1;jettySize=auto;html=1;exitX=0.5;exitY=1;exitDx=0;exitDy=0;entryX=0.5;entryY=0;entryDx=0;entryDy=0;fontFamily=Zen Kurenaido;fontSource=https%3A%2F%2Ffonts.googleapis.com%2Fcss%3Ffamily%3DZen%2BKurenaido;fontSize=30;" parent="veqoH-x-ZnqVkIVaN_2g-1" source="veqoH-x-ZnqVkIVaN_2g-30" target="veqoH-x-ZnqVkIVaN_2g-33" edge="1">
          <mxGeometry relative="1" as="geometry" />
        </mxCell>
        <mxCell id="veqoH-x-ZnqVkIVaN_2g-30" value="" style="rhombus;whiteSpace=wrap;html=1;fontFamily=Dancing Script;fontSource=https%3A%2F%2Ffonts.googleapis.com%2Fcss%3Ffamily%3DDancing%2BScript;fontSize=55;verticalAlign=middle;horizontal=1;rounded=0;" parent="veqoH-x-ZnqVkIVaN_2g-1" vertex="1">
          <mxGeometry x="95" y="1290" width="400" height="150" as="geometry" />
        </mxCell>
        <mxCell id="veqoH-x-ZnqVkIVaN_2g-31" value="&lt;span&gt;S3が緑&lt;/span&gt;" style="text;html=1;strokeColor=none;fillColor=none;align=center;verticalAlign=middle;whiteSpace=wrap;rounded=0;labelBackgroundColor=none;labelBorderColor=none;fontFamily=Zen Kurenaido;fontSource=https%3A%2F%2Ffonts.googleapis.com%2Fcss%3Ffamily%3DZen%2BKurenaido;fontSize=30;" parent="veqoH-x-ZnqVkIVaN_2g-1" vertex="1">
          <mxGeometry x="210" y="1320" width="170" height="90" as="geometry" />
        </mxCell>
        <mxCell id="veqoH-x-ZnqVkIVaN_2g-32" style="edgeStyle=orthogonalEdgeStyle;rounded=0;orthogonalLoop=1;jettySize=auto;html=1;exitX=1;exitY=0.5;exitDx=0;exitDy=0;entryX=0;entryY=0.5;entryDx=0;entryDy=0;fontFamily=Zen Kurenaido;fontSource=https%3A%2F%2Ffonts.googleapis.com%2Fcss%3Ffamily%3DZen%2BKurenaido;fontSize=30;" parent="veqoH-x-ZnqVkIVaN_2g-1" source="veqoH-x-ZnqVkIVaN_2g-33" target="veqoH-x-ZnqVkIVaN_2g-36" edge="1">
          <mxGeometry relative="1" as="geometry" />
        </mxCell>
        <mxCell id="veqoH-x-ZnqVkIVaN_2g-33" value="" style="rhombus;whiteSpace=wrap;html=1;fontFamily=Dancing Script;fontSource=https%3A%2F%2Ffonts.googleapis.com%2Fcss%3Ffamily%3DDancing%2BScript;fontSize=55;verticalAlign=middle;horizontal=1;rounded=0;" parent="veqoH-x-ZnqVkIVaN_2g-1" vertex="1">
          <mxGeometry x="95" y="1490" width="400" height="150" as="geometry" />
        </mxCell>
        <mxCell id="eDNz1TK98uui8Gx16TL9-1" style="edgeStyle=orthogonalEdgeStyle;rounded=0;orthogonalLoop=1;jettySize=auto;html=1;exitX=0.5;exitY=1;exitDx=0;exitDy=0;fontFamily=Zen Kurenaido;fontSource=https%3A%2F%2Ffonts.googleapis.com%2Fcss%3Ffamily%3DZen%2BKurenaido;fontSize=30;entryX=0.5;entryY=0;entryDx=0;entryDy=0;" parent="veqoH-x-ZnqVkIVaN_2g-1" source="veqoH-x-ZnqVkIVaN_2g-34" target="CvUFFqk8p88dNU25HqTK-14" edge="1">
          <mxGeometry relative="1" as="geometry">
            <mxPoint x="295.47368421052647" y="1690" as="targetPoint" />
          </mxGeometry>
        </mxCell>
        <mxCell id="veqoH-x-ZnqVkIVaN_2g-34" value="&lt;font style=&quot;font-size: 28px&quot;&gt;&lt;span&gt;S4反射光の減少量&lt;/span&gt;&lt;br&gt;&lt;span&gt;が一定以上&lt;/span&gt;&lt;/font&gt;" style="text;html=1;strokeColor=none;fillColor=none;align=center;verticalAlign=middle;whiteSpace=wrap;rounded=0;labelBackgroundColor=none;labelBorderColor=none;fontFamily=Zen Kurenaido;fontSource=https%3A%2F%2Ffonts.googleapis.com%2Fcss%3Ffamily%3DZen%2BKurenaido;fontSize=30;" parent="veqoH-x-ZnqVkIVaN_2g-1" vertex="1">
          <mxGeometry x="147.5" y="1490" width="295" height="150" as="geometry" />
        </mxCell>
        <mxCell id="veqoH-x-ZnqVkIVaN_2g-35" value="" style="edgeStyle=segmentEdgeStyle;endArrow=classic;html=1;rounded=0;fontFamily=Zen Kurenaido;fontSource=https%3A%2F%2Ffonts.googleapis.com%2Fcss%3Ffamily%3DZen%2BKurenaido;fontSize=30;exitX=1;exitY=0.5;exitDx=0;exitDy=0;entryX=0.5;entryY=0;entryDx=0;entryDy=0;" parent="veqoH-x-ZnqVkIVaN_2g-1" source="veqoH-x-ZnqVkIVaN_2g-30" target="veqoH-x-ZnqVkIVaN_2g-36" edge="1">
          <mxGeometry width="50" height="50" relative="1" as="geometry">
            <mxPoint x="540" y="1350" as="sourcePoint" />
            <mxPoint x="740" y="1490" as="targetPoint" />
          </mxGeometry>
        </mxCell>
        <mxCell id="veqoH-x-ZnqVkIVaN_2g-36" value="&lt;font face=&quot;Zen Kurenaido&quot;&gt;&lt;span style=&quot;font-size: 30px&quot;&gt;右折&lt;/span&gt;&lt;/font&gt;" style="shape=process;whiteSpace=wrap;html=1;backgroundOutline=1;labelBackgroundColor=none;labelBorderColor=none;fontFamily=Dancing Script;fontSource=https%3A%2F%2Ffonts.googleapis.com%2Fcss%3Ffamily%3DDancing%2BScript;fontSize=18;rounded=0;" parent="veqoH-x-ZnqVkIVaN_2g-1" vertex="1">
          <mxGeometry x="580" y="1525" width="250" height="80" as="geometry" />
        </mxCell>
        <mxCell id="veqoH-x-ZnqVkIVaN_2g-38" value="&lt;span style=&quot;font-size: 35px&quot;&gt;Yes&lt;/span&gt;" style="text;html=1;strokeColor=none;fillColor=none;align=center;verticalAlign=middle;whiteSpace=wrap;rounded=0;labelBackgroundColor=none;labelBorderColor=none;fontFamily=Dancing Script;fontSource=https%3A%2F%2Ffonts.googleapis.com%2Fcss%3Ffamily%3DDancing%2BScript;fontSize=45;" parent="veqoH-x-ZnqVkIVaN_2g-1" vertex="1">
          <mxGeometry x="510" y="510" width="60" height="30" as="geometry" />
        </mxCell>
        <mxCell id="veqoH-x-ZnqVkIVaN_2g-39" value="&lt;span style=&quot;font-size: 35px&quot;&gt;Yes&lt;/span&gt;" style="text;html=1;strokeColor=none;fillColor=none;align=center;verticalAlign=middle;whiteSpace=wrap;rounded=0;labelBackgroundColor=none;labelBorderColor=none;fontFamily=Dancing Script;fontSource=https%3A%2F%2Ffonts.googleapis.com%2Fcss%3Ffamily%3DDancing%2BScript;fontSize=45;" parent="veqoH-x-ZnqVkIVaN_2g-1" vertex="1">
          <mxGeometry x="580" y="920" width="60" height="30" as="geometry" />
        </mxCell>
        <mxCell id="veqoH-x-ZnqVkIVaN_2g-41" value="&lt;span style=&quot;font-size: 35px&quot;&gt;Yes&lt;/span&gt;" style="text;html=1;strokeColor=none;fillColor=none;align=center;verticalAlign=middle;whiteSpace=wrap;rounded=0;labelBackgroundColor=none;labelBorderColor=none;fontFamily=Dancing Script;fontSource=https%3A%2F%2Ffonts.googleapis.com%2Fcss%3Ffamily%3DDancing%2BScript;fontSize=45;" parent="veqoH-x-ZnqVkIVaN_2g-1" vertex="1">
          <mxGeometry x="510" y="1120" width="60" height="30" as="geometry" />
        </mxCell>
        <mxCell id="veqoH-x-ZnqVkIVaN_2g-42" value="&lt;span style=&quot;font-size: 35px&quot;&gt;Yes&lt;/span&gt;" style="text;html=1;strokeColor=none;fillColor=none;align=center;verticalAlign=middle;whiteSpace=wrap;rounded=0;labelBackgroundColor=none;labelBorderColor=none;fontFamily=Dancing Script;fontSource=https%3A%2F%2Ffonts.googleapis.com%2Fcss%3Ffamily%3DDancing%2BScript;fontSize=45;" parent="veqoH-x-ZnqVkIVaN_2g-1" vertex="1">
          <mxGeometry x="580" y="1320" width="60" height="30" as="geometry" />
        </mxCell>
        <mxCell id="veqoH-x-ZnqVkIVaN_2g-43" value="&lt;span style=&quot;font-size: 35px&quot;&gt;Yes&lt;/span&gt;" style="text;html=1;strokeColor=none;fillColor=none;align=center;verticalAlign=middle;whiteSpace=wrap;rounded=0;labelBackgroundColor=none;labelBorderColor=none;fontFamily=Dancing Script;fontSource=https%3A%2F%2Ffonts.googleapis.com%2Fcss%3Ffamily%3DDancing%2BScript;fontSize=45;" parent="veqoH-x-ZnqVkIVaN_2g-1" vertex="1">
          <mxGeometry x="510" y="1520" width="60" height="30" as="geometry" />
        </mxCell>
        <mxCell id="CvUFFqk8p88dNU25HqTK-7" value="&lt;font face=&quot;Zen Kurenaido&quot;&gt;&lt;span style=&quot;font-size: 30px&quot;&gt;Uターン&lt;/span&gt;&lt;/font&gt;" style="shape=process;whiteSpace=wrap;html=1;backgroundOutline=1;labelBackgroundColor=none;labelBorderColor=none;fontFamily=Dancing Script;fontSource=https%3A%2F%2Ffonts.googleapis.com%2Fcss%3Ffamily%3DDancing%2BScript;fontSize=18;rounded=0;" parent="veqoH-x-ZnqVkIVaN_2g-1" vertex="1">
          <mxGeometry x="580" y="715" width="250" height="80" as="geometry" />
        </mxCell>
        <mxCell id="CvUFFqk8p88dNU25HqTK-9" value="" style="rhombus;whiteSpace=wrap;html=1;fontFamily=Dancing Script;fontSource=https%3A%2F%2Ffonts.googleapis.com%2Fcss%3Ffamily%3DDancing%2BScript;fontSize=55;verticalAlign=middle;horizontal=1;rounded=0;" parent="veqoH-x-ZnqVkIVaN_2g-1" vertex="1">
          <mxGeometry x="95" y="680" width="400" height="150" as="geometry" />
        </mxCell>
        <mxCell id="CvUFFqk8p88dNU25HqTK-10" value="&lt;span&gt;S2とS3が緑&lt;/span&gt;" style="text;html=1;strokeColor=none;fillColor=none;align=center;verticalAlign=middle;whiteSpace=wrap;rounded=0;labelBackgroundColor=none;labelBorderColor=none;fontFamily=Zen Kurenaido;fontSource=https%3A%2F%2Ffonts.googleapis.com%2Fcss%3Ffamily%3DZen%2BKurenaido;fontSize=30;" parent="veqoH-x-ZnqVkIVaN_2g-1" vertex="1">
          <mxGeometry x="210" y="710" width="170" height="90" as="geometry" />
        </mxCell>
        <mxCell id="CvUFFqk8p88dNU25HqTK-11" style="edgeStyle=orthogonalEdgeStyle;rounded=0;orthogonalLoop=1;jettySize=auto;html=1;exitX=1;exitY=0.5;exitDx=0;exitDy=0;entryX=0;entryY=0.5;entryDx=0;entryDy=0;fontFamily=Zen Kurenaido;fontSource=https%3A%2F%2Ffonts.googleapis.com%2Fcss%3Ffamily%3DZen%2BKurenaido;fontSize=30;" parent="veqoH-x-ZnqVkIVaN_2g-1" edge="1">
          <mxGeometry relative="1" as="geometry">
            <mxPoint x="495" y="755" as="sourcePoint" />
            <mxPoint x="580" y="755" as="targetPoint" />
          </mxGeometry>
        </mxCell>
        <mxCell id="CvUFFqk8p88dNU25HqTK-12" value="&lt;span style=&quot;font-size: 35px&quot;&gt;Yes&lt;/span&gt;" style="text;html=1;strokeColor=none;fillColor=none;align=center;verticalAlign=middle;whiteSpace=wrap;rounded=0;labelBackgroundColor=none;labelBorderColor=none;fontFamily=Dancing Script;fontSource=https%3A%2F%2Ffonts.googleapis.com%2Fcss%3Ffamily%3DDancing%2BScript;fontSize=45;" parent="veqoH-x-ZnqVkIVaN_2g-1" vertex="1">
          <mxGeometry x="510" y="710" width="60" height="30" as="geometry" />
        </mxCell>
        <mxCell id="CvUFFqk8p88dNU25HqTK-13" style="edgeStyle=orthogonalEdgeStyle;rounded=0;orthogonalLoop=1;jettySize=auto;html=1;exitX=0.5;exitY=1;exitDx=0;exitDy=0;entryX=0.5;entryY=0;entryDx=0;entryDy=0;fontFamily=Dancing Script;fontSource=https%3A%2F%2Ffonts.googleapis.com%2Fcss%3Ffamily%3DDancing%2BScript;fontSize=35;" parent="veqoH-x-ZnqVkIVaN_2g-1" edge="1">
          <mxGeometry relative="1" as="geometry">
            <mxPoint x="295" y="830" as="sourcePoint" />
            <mxPoint x="295" y="890" as="targetPoint" />
          </mxGeometry>
        </mxCell>
        <mxCell id="CvUFFqk8p88dNU25HqTK-14" value="" style="rhombus;whiteSpace=wrap;html=1;fontFamily=Dancing Script;fontSource=https%3A%2F%2Ffonts.googleapis.com%2Fcss%3Ffamily%3DDancing%2BScript;fontSize=55;verticalAlign=middle;horizontal=1;rounded=0;" parent="veqoH-x-ZnqVkIVaN_2g-1" vertex="1">
          <mxGeometry x="95" y="1700" width="400" height="150" as="geometry" />
        </mxCell>
        <mxCell id="CvUFFqk8p88dNU25HqTK-15" value="2個以上が&lt;br&gt;銀色" style="text;html=1;strokeColor=none;fillColor=none;align=center;verticalAlign=middle;whiteSpace=wrap;rounded=0;labelBackgroundColor=none;labelBorderColor=none;fontFamily=Zen Kurenaido;fontSource=https%3A%2F%2Ffonts.googleapis.com%2Fcss%3Ffamily%3DZen%2BKurenaido;fontSize=30;" parent="veqoH-x-ZnqVkIVaN_2g-1" vertex="1">
          <mxGeometry x="210" y="1730" width="170" height="90" as="geometry" />
        </mxCell>
        <mxCell id="CvUFFqk8p88dNU25HqTK-16" style="edgeStyle=orthogonalEdgeStyle;rounded=0;orthogonalLoop=1;jettySize=auto;html=1;exitX=1;exitY=0.5;exitDx=0;exitDy=0;entryX=0;entryY=0.5;entryDx=0;entryDy=0;fontFamily=Zen Kurenaido;fontSource=https%3A%2F%2Ffonts.googleapis.com%2Fcss%3Ffamily%3DZen%2BKurenaido;fontSize=30;" parent="veqoH-x-ZnqVkIVaN_2g-1" edge="1">
          <mxGeometry relative="1" as="geometry">
            <mxPoint x="495" y="1775" as="sourcePoint" />
            <mxPoint x="580" y="1775" as="targetPoint" />
          </mxGeometry>
        </mxCell>
        <mxCell id="CvUFFqk8p88dNU25HqTK-17" value="&lt;span style=&quot;font-size: 35px&quot;&gt;Yes&lt;/span&gt;" style="text;html=1;strokeColor=none;fillColor=none;align=center;verticalAlign=middle;whiteSpace=wrap;rounded=0;labelBackgroundColor=none;labelBorderColor=none;fontFamily=Dancing Script;fontSource=https%3A%2F%2Ffonts.googleapis.com%2Fcss%3Ffamily%3DDancing%2BScript;fontSize=45;" parent="veqoH-x-ZnqVkIVaN_2g-1" vertex="1">
          <mxGeometry x="510" y="1730" width="60" height="30" as="geometry" />
        </mxCell>
        <mxCell id="CvUFFqk8p88dNU25HqTK-18" value="&lt;font face=&quot;Zen Kurenaido&quot;&gt;&lt;span style=&quot;font-size: 30px&quot;&gt;救出ゾーン&lt;/span&gt;&lt;/font&gt;" style="shape=process;whiteSpace=wrap;html=1;backgroundOutline=1;labelBackgroundColor=none;labelBorderColor=none;fontFamily=Dancing Script;fontSource=https%3A%2F%2Ffonts.googleapis.com%2Fcss%3Ffamily%3DDancing%2BScript;fontSize=18;rounded=0;" parent="veqoH-x-ZnqVkIVaN_2g-1" vertex="1">
          <mxGeometry x="580" y="1735" width="250" height="80" as="geometry" />
        </mxCell>
        <mxCell id="CvUFFqk8p88dNU25HqTK-26" style="edgeStyle=orthogonalEdgeStyle;rounded=0;orthogonalLoop=1;jettySize=auto;html=1;exitX=0.5;exitY=1;exitDx=0;exitDy=0;entryX=0.5;entryY=0;entryDx=0;entryDy=0;fontFamily=Dancing Script;fontSource=https%3A%2F%2Ffonts.googleapis.com%2Fcss%3Ffamily%3DDancing%2BScript;fontSize=35;" parent="veqoH-x-ZnqVkIVaN_2g-1" target="CvUFFqk8p88dNU25HqTK-27" edge="1">
          <mxGeometry relative="1" as="geometry">
            <mxPoint x="295" y="1850" as="sourcePoint" />
          </mxGeometry>
        </mxCell>
        <mxCell id="LywUUgZLFjbZ6bmT356V-2" style="edgeStyle=orthogonalEdgeStyle;rounded=0;orthogonalLoop=1;jettySize=auto;html=1;exitX=0.5;exitY=1;exitDx=0;exitDy=0;entryX=0.5;entryY=0;entryDx=0;entryDy=0;" parent="veqoH-x-ZnqVkIVaN_2g-1" source="CvUFFqk8p88dNU25HqTK-27" target="LywUUgZLFjbZ6bmT356V-1" edge="1">
          <mxGeometry relative="1" as="geometry" />
        </mxCell>
        <mxCell id="CvUFFqk8p88dNU25HqTK-27" value="" style="rhombus;whiteSpace=wrap;html=1;fontFamily=Dancing Script;fontSource=https%3A%2F%2Ffonts.googleapis.com%2Fcss%3Ffamily%3DDancing%2BScript;fontSize=55;verticalAlign=middle;horizontal=1;rounded=0;" parent="veqoH-x-ZnqVkIVaN_2g-1" vertex="1">
          <mxGeometry x="95" y="1910" width="400" height="150" as="geometry" />
        </mxCell>
        <mxCell id="CvUFFqk8p88dNU25HqTK-28" value="2個以上が赤" style="text;html=1;strokeColor=none;fillColor=none;align=center;verticalAlign=middle;whiteSpace=wrap;rounded=0;labelBackgroundColor=none;labelBorderColor=none;fontFamily=Zen Kurenaido;fontSource=https%3A%2F%2Ffonts.googleapis.com%2Fcss%3Ffamily%3DZen%2BKurenaido;fontSize=30;" parent="veqoH-x-ZnqVkIVaN_2g-1" vertex="1">
          <mxGeometry x="210" y="1940" width="170" height="90" as="geometry" />
        </mxCell>
        <mxCell id="CvUFFqk8p88dNU25HqTK-29" style="edgeStyle=orthogonalEdgeStyle;rounded=0;orthogonalLoop=1;jettySize=auto;html=1;exitX=1;exitY=0.5;exitDx=0;exitDy=0;entryX=0;entryY=0.5;entryDx=0;entryDy=0;fontFamily=Zen Kurenaido;fontSource=https%3A%2F%2Ffonts.googleapis.com%2Fcss%3Ffamily%3DZen%2BKurenaido;fontSize=30;" parent="veqoH-x-ZnqVkIVaN_2g-1" edge="1">
          <mxGeometry relative="1" as="geometry">
            <mxPoint x="495" y="1985" as="sourcePoint" />
            <mxPoint x="580" y="1985" as="targetPoint" />
          </mxGeometry>
        </mxCell>
        <mxCell id="CvUFFqk8p88dNU25HqTK-30" value="&lt;span style=&quot;font-size: 35px&quot;&gt;Yes&lt;/span&gt;" style="text;html=1;strokeColor=none;fillColor=none;align=center;verticalAlign=middle;whiteSpace=wrap;rounded=0;labelBackgroundColor=none;labelBorderColor=none;fontFamily=Dancing Script;fontSource=https%3A%2F%2Ffonts.googleapis.com%2Fcss%3Ffamily%3DDancing%2BScript;fontSize=45;" parent="veqoH-x-ZnqVkIVaN_2g-1" vertex="1">
          <mxGeometry x="510" y="1940" width="60" height="30" as="geometry" />
        </mxCell>
        <mxCell id="CvUFFqk8p88dNU25HqTK-32" value="&lt;font face=&quot;Dancing Script&quot;&gt;&lt;span style=&quot;font-size: 45px&quot;&gt;Finish&lt;/span&gt;&lt;/font&gt;" style="rounded=0;whiteSpace=wrap;html=1;labelBackgroundColor=none;labelBorderColor=none;fontFamily=Zen Kurenaido;fontSource=https%3A%2F%2Ffonts.googleapis.com%2Fcss%3Ffamily%3DZen%2BKurenaido;fontSize=28;arcSize=50;" parent="veqoH-x-ZnqVkIVaN_2g-1" vertex="1">
          <mxGeometry x="580" y="1940" width="250" height="90" as="geometry" />
        </mxCell>
        <mxCell id="CvUFFqk8p88dNU25HqTK-33" value="" style="shape=loopLimit;whiteSpace=wrap;html=1;size=40;rotation=-180;rounded=0;" parent="veqoH-x-ZnqVkIVaN_2g-1" vertex="1">
          <mxGeometry x="20" y="2260" width="550" height="100" as="geometry" />
        </mxCell>
        <mxCell id="x0Op1LWvpmtQKIEIJhTs-4" value="" style="edgeStyle=segmentEdgeStyle;endArrow=classic;html=1;rounded=0;exitX=0.5;exitY=1;exitDx=0;exitDy=0;" parent="veqoH-x-ZnqVkIVaN_2g-1" source="veqoH-x-ZnqVkIVaN_2g-10" edge="1">
          <mxGeometry width="50" height="50" relative="1" as="geometry">
            <mxPoint x="740" y="610" as="sourcePoint" />
            <mxPoint x="295" y="650" as="targetPoint" />
            <Array as="points">
              <mxPoint x="705" y="650" />
            </Array>
          </mxGeometry>
        </mxCell>
        <mxCell id="x0Op1LWvpmtQKIEIJhTs-5" value="" style="edgeStyle=segmentEdgeStyle;endArrow=classic;html=1;rounded=0;exitX=0.5;exitY=1;exitDx=0;exitDy=0;" parent="veqoH-x-ZnqVkIVaN_2g-1" edge="1">
          <mxGeometry width="50" height="50" relative="1" as="geometry">
            <mxPoint x="705" y="1205" as="sourcePoint" />
            <mxPoint x="295" y="1260" as="targetPoint" />
            <Array as="points">
              <mxPoint x="705" y="1260" />
            </Array>
          </mxGeometry>
        </mxCell>
        <mxCell id="x0Op1LWvpmtQKIEIJhTs-6" value="" style="edgeStyle=segmentEdgeStyle;endArrow=classic;html=1;rounded=0;exitX=0.5;exitY=1;exitDx=0;exitDy=0;" parent="veqoH-x-ZnqVkIVaN_2g-1" edge="1">
          <mxGeometry width="50" height="50" relative="1" as="geometry">
            <mxPoint x="705" y="1605" as="sourcePoint" />
            <mxPoint x="295" y="1660" as="targetPoint" />
            <Array as="points">
              <mxPoint x="705" y="1660" />
            </Array>
          </mxGeometry>
        </mxCell>
        <mxCell id="x0Op1LWvpmtQKIEIJhTs-7" value="" style="edgeStyle=segmentEdgeStyle;endArrow=classic;html=1;rounded=0;exitX=0.5;exitY=1;exitDx=0;exitDy=0;" parent="veqoH-x-ZnqVkIVaN_2g-1" edge="1">
          <mxGeometry width="50" height="50" relative="1" as="geometry">
            <mxPoint x="705" y="795" as="sourcePoint" />
            <mxPoint x="295" y="850" as="targetPoint" />
            <Array as="points">
              <mxPoint x="705" y="850" />
            </Array>
          </mxGeometry>
        </mxCell>
        <mxCell id="x0Op1LWvpmtQKIEIJhTs-8" value="" style="edgeStyle=segmentEdgeStyle;endArrow=classic;html=1;rounded=0;exitX=0.5;exitY=1;exitDx=0;exitDy=0;" parent="veqoH-x-ZnqVkIVaN_2g-1" edge="1">
          <mxGeometry width="50" height="50" relative="1" as="geometry">
            <mxPoint x="705" y="1815" as="sourcePoint" />
            <mxPoint x="295" y="1870" as="targetPoint" />
            <Array as="points">
              <mxPoint x="705" y="1870" />
            </Array>
          </mxGeometry>
        </mxCell>
        <mxCell id="LywUUgZLFjbZ6bmT356V-3" style="edgeStyle=orthogonalEdgeStyle;rounded=0;orthogonalLoop=1;jettySize=auto;html=1;exitX=0.5;exitY=1;exitDx=0;exitDy=0;entryX=0.5;entryY=1;entryDx=0;entryDy=0;" parent="veqoH-x-ZnqVkIVaN_2g-1" source="LywUUgZLFjbZ6bmT356V-1" target="CvUFFqk8p88dNU25HqTK-33" edge="1">
          <mxGeometry relative="1" as="geometry" />
        </mxCell>
        <mxCell id="LywUUgZLFjbZ6bmT356V-1" value="&lt;font face=&quot;Zen Kurenaido&quot;&gt;&lt;span style=&quot;font-size: 30px&quot;&gt;ライントレース&lt;/span&gt;&lt;/font&gt;" style="shape=process;whiteSpace=wrap;html=1;backgroundOutline=1;labelBackgroundColor=none;labelBorderColor=none;fontFamily=Dancing Script;fontSource=https%3A%2F%2Ffonts.googleapis.com%2Fcss%3Ffamily%3DDancing%2BScript;fontSize=18;rounded=0;" parent="veqoH-x-ZnqVkIVaN_2g-1" vertex="1">
          <mxGeometry x="155" y="2120" width="280" height="80" as="geometry" />
        </mxCell>
      </root>
    </mxGraphModel>
  </diagram>
  <diagram id="ne3bsxSb2EaP9LqaniPR" name="avidance">
    <mxGraphModel dx="1422" dy="800" grid="1" gridSize="10" guides="1" tooltips="1" connect="1" arrows="1" fold="1" page="1" pageScale="1" pageWidth="900" pageHeight="1600" math="0" shadow="0">
      <root>
        <mxCell id="lzjFIzp38_JWi-WorDkD-0" />
        <mxCell id="lzjFIzp38_JWi-WorDkD-1" parent="lzjFIzp38_JWi-WorDkD-0" />
        <mxCell id="joO7-Ot1DuYoixzRyItP-0" value="" style="rounded=0;whiteSpace=wrap;html=1;fontFamily=Zen Kurenaido;fontSource=https%3A%2F%2Ffonts.googleapis.com%2Fcss%3Ffamily%3DZen%2BKurenaido;fontSize=30;fillColor=#000000;rotation=90;" parent="lzjFIzp38_JWi-WorDkD-1" vertex="1">
          <mxGeometry x="615" y="315" width="240" height="20" as="geometry" />
        </mxCell>
        <mxCell id="nvmkuIUAZyc94_1xwRWQ-1" style="edgeStyle=orthogonalEdgeStyle;orthogonalLoop=1;jettySize=auto;html=1;exitX=0.5;exitY=1;exitDx=0;exitDy=0;entryX=0.5;entryY=0;entryDx=0;entryDy=0;fontFamily=Zen Kurenaido;fontSource=https%3A%2F%2Ffonts.googleapis.com%2Fcss%3Ffamily%3DZen%2BKurenaido;fontSize=30;" parent="lzjFIzp38_JWi-WorDkD-1" source="TkCWMvws2MzJdrMa7F1R-1" target="nvmkuIUAZyc94_1xwRWQ-0" edge="1">
          <mxGeometry relative="1" as="geometry" />
        </mxCell>
        <mxCell id="TkCWMvws2MzJdrMa7F1R-1" value="&lt;span style=&quot;font-family: &amp;#34;zen kurenaido&amp;#34;&quot;&gt;&lt;font style=&quot;font-size: 35px&quot;&gt;障害物回避&lt;/font&gt;&lt;/span&gt;" style="rounded=1;whiteSpace=wrap;html=1;arcSize=50;" parent="lzjFIzp38_JWi-WorDkD-1" vertex="1">
          <mxGeometry x="120" y="45" width="240" height="80" as="geometry" />
        </mxCell>
        <mxCell id="nvmkuIUAZyc94_1xwRWQ-5" style="edgeStyle=orthogonalEdgeStyle;orthogonalLoop=1;jettySize=auto;html=1;exitX=0.5;exitY=1;exitDx=0;exitDy=0;entryX=0.5;entryY=0;entryDx=0;entryDy=0;entryPerimeter=0;fontFamily=Zen Kurenaido;fontSource=https%3A%2F%2Ffonts.googleapis.com%2Fcss%3Ffamily%3DZen%2BKurenaido;fontSize=30;" parent="lzjFIzp38_JWi-WorDkD-1" source="nvmkuIUAZyc94_1xwRWQ-0" target="nvmkuIUAZyc94_1xwRWQ-4" edge="1">
          <mxGeometry relative="1" as="geometry" />
        </mxCell>
        <mxCell id="nvmkuIUAZyc94_1xwRWQ-0" value="&lt;font face=&quot;Zen Kurenaido&quot; style=&quot;font-size: 30px&quot;&gt;左を向く&lt;/font&gt;" style="rounded=0;whiteSpace=wrap;html=1;" parent="lzjFIzp38_JWi-WorDkD-1" vertex="1">
          <mxGeometry x="160" y="165" width="160" height="70" as="geometry" />
        </mxCell>
        <mxCell id="nvmkuIUAZyc94_1xwRWQ-8" style="edgeStyle=orthogonalEdgeStyle;orthogonalLoop=1;jettySize=auto;html=1;exitX=0.5;exitY=1;exitDx=0;exitDy=0;exitPerimeter=0;entryX=0.5;entryY=0;entryDx=0;entryDy=0;fontFamily=Zen Kurenaido;fontSource=https%3A%2F%2Ffonts.googleapis.com%2Fcss%3Ffamily%3DZen%2BKurenaido;fontSize=30;" parent="lzjFIzp38_JWi-WorDkD-1" source="nvmkuIUAZyc94_1xwRWQ-4" target="nvmkuIUAZyc94_1xwRWQ-7" edge="1">
          <mxGeometry relative="1" as="geometry" />
        </mxCell>
        <mxCell id="nvmkuIUAZyc94_1xwRWQ-4" value="進んだ量がa以下" style="strokeWidth=1;html=1;shape=mxgraph.flowchart.loop_limit;whiteSpace=wrap;fontFamily=Zen Kurenaido;fontSource=https%3A%2F%2Ffonts.googleapis.com%2Fcss%3Ffamily%3DZen%2BKurenaido;fontSize=30;" parent="lzjFIzp38_JWi-WorDkD-1" vertex="1">
          <mxGeometry x="67.5" y="285" width="345" height="80" as="geometry" />
        </mxCell>
        <mxCell id="hGP9F1ql_yX-CEV4uMZd-0" style="edgeStyle=orthogonalEdgeStyle;orthogonalLoop=1;jettySize=auto;html=1;exitX=0.5;exitY=1;exitDx=0;exitDy=0;entryX=0.5;entryY=0;entryDx=0;entryDy=0;fontFamily=Zen Kurenaido;fontSource=https%3A%2F%2Ffonts.googleapis.com%2Fcss%3Ffamily%3DZen%2BKurenaido;fontSize=54;" parent="lzjFIzp38_JWi-WorDkD-1" source="nvmkuIUAZyc94_1xwRWQ-7" target="f8WAnBcvpjvNKpoW19ZK-0" edge="1">
          <mxGeometry relative="1" as="geometry" />
        </mxCell>
        <mxCell id="nvmkuIUAZyc94_1xwRWQ-7" value="&lt;font face=&quot;Zen Kurenaido&quot;&gt;&lt;span style=&quot;font-size: 30px&quot;&gt;進む&lt;/span&gt;&lt;/font&gt;" style="rounded=0;whiteSpace=wrap;html=1;" parent="lzjFIzp38_JWi-WorDkD-1" vertex="1">
          <mxGeometry x="160" y="415" width="160" height="70" as="geometry" />
        </mxCell>
        <mxCell id="nvmkuIUAZyc94_1xwRWQ-9" value="" style="strokeWidth=1;html=1;shape=mxgraph.flowchart.loop_limit;whiteSpace=wrap;fontFamily=Zen Kurenaido;fontSource=https%3A%2F%2Ffonts.googleapis.com%2Fcss%3Ffamily%3DZen%2BKurenaido;fontSize=30;rotation=-180;" parent="lzjFIzp38_JWi-WorDkD-1" vertex="1">
          <mxGeometry x="75" y="855" width="330" height="70" as="geometry" />
        </mxCell>
        <mxCell id="0M2pX7v3IOSdngDurmia-2" style="edgeStyle=orthogonalEdgeStyle;orthogonalLoop=1;jettySize=auto;html=1;exitX=1;exitY=0.5;exitDx=0;exitDy=0;fontFamily=Zen Kurenaido;fontSource=https%3A%2F%2Ffonts.googleapis.com%2Fcss%3Ffamily%3DZen%2BKurenaido;fontSize=30;" parent="lzjFIzp38_JWi-WorDkD-1" source="f8WAnBcvpjvNKpoW19ZK-0" edge="1">
          <mxGeometry relative="1" as="geometry">
            <mxPoint x="480" y="605" as="targetPoint" />
          </mxGeometry>
        </mxCell>
        <mxCell id="0M2pX7v3IOSdngDurmia-12" style="edgeStyle=orthogonalEdgeStyle;orthogonalLoop=1;jettySize=auto;html=1;exitX=0.5;exitY=1;exitDx=0;exitDy=0;entryX=0.5;entryY=0;entryDx=0;entryDy=0;fontFamily=Zen Kurenaido;fontSource=https%3A%2F%2Ffonts.googleapis.com%2Fcss%3Ffamily%3DZen%2BKurenaido;fontSize=30;" parent="lzjFIzp38_JWi-WorDkD-1" source="f8WAnBcvpjvNKpoW19ZK-0" target="0M2pX7v3IOSdngDurmia-11" edge="1">
          <mxGeometry relative="1" as="geometry" />
        </mxCell>
        <mxCell id="f8WAnBcvpjvNKpoW19ZK-0" value="" style="rhombus;whiteSpace=wrap;html=1;fontFamily=Dancing Script;fontSource=https%3A%2F%2Ffonts.googleapis.com%2Fcss%3Ffamily%3DDancing%2BScript;fontSize=55;verticalAlign=middle;horizontal=1;rounded=0;" parent="lzjFIzp38_JWi-WorDkD-1" vertex="1">
          <mxGeometry x="80" y="525" width="320" height="160" as="geometry" />
        </mxCell>
        <mxCell id="0M2pX7v3IOSdngDurmia-0" value="&lt;span style=&quot;font-size: 30px&quot;&gt;&lt;font face=&quot;Zen Kurenaido&quot; data-font-src=&quot;https://fonts.googleapis.com/css?family=Zen+Kurenaido&quot;&gt;タッチセンサー&lt;br&gt;が反応&lt;br&gt;&lt;/font&gt;&lt;/span&gt;" style="text;html=1;strokeColor=none;fillColor=none;align=center;verticalAlign=middle;whiteSpace=wrap;rounded=0;labelBackgroundColor=none;labelBorderColor=none;fontFamily=Dancing Script;fontSource=https%3A%2F%2Ffonts.googleapis.com%2Fcss%3Ffamily%3DDancing%2BScript;fontSize=18;" parent="lzjFIzp38_JWi-WorDkD-1" vertex="1">
          <mxGeometry x="67.5" y="565" width="340" height="90" as="geometry" />
        </mxCell>
        <mxCell id="0M2pX7v3IOSdngDurmia-5" value="&lt;span style=&quot;font-size: 30px&quot;&gt;&lt;font face=&quot;Zen Kurenaido&quot; data-font-src=&quot;https://fonts.googleapis.com/css?family=Zen+Kurenaido&quot;&gt;障害物の横を通れる&lt;br&gt;ことを担保できるまでの&lt;br&gt;進む量を定数aとする&lt;br&gt;&lt;/font&gt;&lt;/span&gt;" style="text;html=1;strokeColor=none;fillColor=none;align=center;verticalAlign=middle;whiteSpace=wrap;rounded=0;labelBackgroundColor=none;labelBorderColor=none;fontFamily=Dancing Script;fontSource=https%3A%2F%2Ffonts.googleapis.com%2Fcss%3Ffamily%3DDancing%2BScript;fontSize=18;" parent="lzjFIzp38_JWi-WorDkD-1" vertex="1">
          <mxGeometry x="460" y="40" width="340" height="170" as="geometry" />
        </mxCell>
        <mxCell id="0M2pX7v3IOSdngDurmia-7" value="&lt;font face=&quot;Zen Kurenaido&quot;&gt;&lt;span style=&quot;font-size: 30px&quot;&gt;a+b 進む&lt;/span&gt;&lt;/font&gt;" style="rounded=0;whiteSpace=wrap;html=1;" parent="lzjFIzp38_JWi-WorDkD-1" vertex="1">
          <mxGeometry x="460" y="735" width="200" height="70" as="geometry" />
        </mxCell>
        <mxCell id="0M2pX7v3IOSdngDurmia-14" style="edgeStyle=orthogonalEdgeStyle;orthogonalLoop=1;jettySize=auto;html=1;exitX=0.5;exitY=1;exitDx=0;exitDy=0;entryX=0.5;entryY=0;entryDx=0;entryDy=0;fontFamily=Zen Kurenaido;fontSource=https%3A%2F%2Ffonts.googleapis.com%2Fcss%3Ffamily%3DZen%2BKurenaido;fontSize=30;" parent="lzjFIzp38_JWi-WorDkD-1" source="0M2pX7v3IOSdngDurmia-9" target="0M2pX7v3IOSdngDurmia-7" edge="1">
          <mxGeometry relative="1" as="geometry" />
        </mxCell>
        <mxCell id="0M2pX7v3IOSdngDurmia-9" value="&lt;font face=&quot;Zen Kurenaido&quot;&gt;&lt;span style=&quot;font-size: 30px&quot;&gt;Uターン&lt;/span&gt;&lt;/font&gt;" style="rounded=0;whiteSpace=wrap;html=1;" parent="lzjFIzp38_JWi-WorDkD-1" vertex="1">
          <mxGeometry x="480" y="570" width="160" height="70" as="geometry" />
        </mxCell>
        <mxCell id="0M2pX7v3IOSdngDurmia-13" style="edgeStyle=orthogonalEdgeStyle;orthogonalLoop=1;jettySize=auto;html=1;exitX=0.5;exitY=1;exitDx=0;exitDy=0;entryX=0.5;entryY=1;entryDx=0;entryDy=0;entryPerimeter=0;fontFamily=Zen Kurenaido;fontSource=https%3A%2F%2Ffonts.googleapis.com%2Fcss%3Ffamily%3DZen%2BKurenaido;fontSize=30;" parent="lzjFIzp38_JWi-WorDkD-1" source="0M2pX7v3IOSdngDurmia-11" target="nvmkuIUAZyc94_1xwRWQ-9" edge="1">
          <mxGeometry relative="1" as="geometry" />
        </mxCell>
        <mxCell id="0M2pX7v3IOSdngDurmia-11" value="&lt;font face=&quot;Zen Kurenaido&quot;&gt;&lt;span style=&quot;font-size: 30px&quot;&gt;進んだ量bを記録&lt;/span&gt;&lt;/font&gt;" style="rounded=0;whiteSpace=wrap;html=1;" parent="lzjFIzp38_JWi-WorDkD-1" vertex="1">
          <mxGeometry x="100" y="725" width="280" height="80" as="geometry" />
        </mxCell>
        <mxCell id="T29lF3hIuseL3JUdyVXu-1" value="" style="edgeStyle=elbowEdgeStyle;elbow=vertical;endArrow=classic;html=1;rounded=0;fontFamily=Zen Kurenaido;fontSource=https%3A%2F%2Ffonts.googleapis.com%2Fcss%3Ffamily%3DZen%2BKurenaido;fontSize=30;exitX=0.5;exitY=1;exitDx=0;exitDy=0;" parent="lzjFIzp38_JWi-WorDkD-1" source="0M2pX7v3IOSdngDurmia-7" edge="1">
          <mxGeometry width="50" height="50" relative="1" as="geometry">
            <mxPoint x="760" y="875" as="sourcePoint" />
            <mxPoint x="240" y="1005" as="targetPoint" />
            <Array as="points">
              <mxPoint x="400" y="965" />
            </Array>
          </mxGeometry>
        </mxCell>
        <mxCell id="T29lF3hIuseL3JUdyVXu-2" value="" style="endArrow=none;html=1;rounded=0;fontFamily=Zen Kurenaido;fontSource=https%3A%2F%2Ffonts.googleapis.com%2Fcss%3Ffamily%3DZen%2BKurenaido;fontSize=30;entryX=0.5;entryY=0;entryDx=0;entryDy=0;entryPerimeter=0;" parent="lzjFIzp38_JWi-WorDkD-1" target="nvmkuIUAZyc94_1xwRWQ-9" edge="1">
          <mxGeometry width="50" height="50" relative="1" as="geometry">
            <mxPoint x="240" y="975" as="sourcePoint" />
            <mxPoint x="550" y="865" as="targetPoint" />
          </mxGeometry>
        </mxCell>
        <mxCell id="2-fjItUPFs_lUWctYt32-3" style="edgeStyle=orthogonalEdgeStyle;rounded=0;orthogonalLoop=1;jettySize=auto;html=1;exitX=0.5;exitY=1;exitDx=0;exitDy=0;exitPerimeter=0;entryX=0.5;entryY=0;entryDx=0;entryDy=0;fontFamily=Zen Kurenaido;fontSource=https%3A%2F%2Ffonts.googleapis.com%2Fcss%3Ffamily%3DZen%2BKurenaido;fontSize=30;" parent="lzjFIzp38_JWi-WorDkD-1" source="2-fjItUPFs_lUWctYt32-0" target="2-fjItUPFs_lUWctYt32-2" edge="1">
          <mxGeometry relative="1" as="geometry" />
        </mxCell>
        <mxCell id="2-fjItUPFs_lUWctYt32-0" value="ラインが無い" style="strokeWidth=1;html=1;shape=mxgraph.flowchart.loop_limit;whiteSpace=wrap;fontFamily=Zen Kurenaido;fontSource=https%3A%2F%2Ffonts.googleapis.com%2Fcss%3Ffamily%3DZen%2BKurenaido;fontSize=30;rotation=0;" parent="lzjFIzp38_JWi-WorDkD-1" vertex="1">
          <mxGeometry x="75" y="1005" width="330" height="70" as="geometry" />
        </mxCell>
        <mxCell id="2-fjItUPFs_lUWctYt32-6" style="edgeStyle=orthogonalEdgeStyle;rounded=0;orthogonalLoop=1;jettySize=auto;html=1;exitX=0.5;exitY=1;exitDx=0;exitDy=0;entryX=0.5;entryY=1;entryDx=0;entryDy=0;entryPerimeter=0;fontFamily=Zen Kurenaido;fontSource=https%3A%2F%2Ffonts.googleapis.com%2Fcss%3Ffamily%3DZen%2BKurenaido;fontSize=30;" parent="lzjFIzp38_JWi-WorDkD-1" source="2-fjItUPFs_lUWctYt32-2" target="2-fjItUPFs_lUWctYt32-4" edge="1">
          <mxGeometry relative="1" as="geometry" />
        </mxCell>
        <mxCell id="2-fjItUPFs_lUWctYt32-2" value="&lt;font face=&quot;Zen Kurenaido&quot;&gt;&lt;span style=&quot;font-size: 30px&quot;&gt;障害物を&lt;br&gt;ぐるっと廻る&lt;/span&gt;&lt;/font&gt;" style="rounded=0;whiteSpace=wrap;html=1;" parent="lzjFIzp38_JWi-WorDkD-1" vertex="1">
          <mxGeometry x="115" y="1125" width="250" height="80" as="geometry" />
        </mxCell>
        <mxCell id="2-fjItUPFs_lUWctYt32-9" style="edgeStyle=orthogonalEdgeStyle;rounded=0;orthogonalLoop=1;jettySize=auto;html=1;exitX=0.5;exitY=0;exitDx=0;exitDy=0;exitPerimeter=0;entryX=0.5;entryY=0;entryDx=0;entryDy=0;fontFamily=Zen Kurenaido;fontSource=https%3A%2F%2Ffonts.googleapis.com%2Fcss%3Ffamily%3DZen%2BKurenaido;fontSize=30;" parent="lzjFIzp38_JWi-WorDkD-1" source="2-fjItUPFs_lUWctYt32-4" target="2-fjItUPFs_lUWctYt32-8" edge="1">
          <mxGeometry relative="1" as="geometry" />
        </mxCell>
        <mxCell id="2-fjItUPFs_lUWctYt32-4" value="" style="strokeWidth=1;html=1;shape=mxgraph.flowchart.loop_limit;whiteSpace=wrap;fontFamily=Zen Kurenaido;fontSource=https%3A%2F%2Ffonts.googleapis.com%2Fcss%3Ffamily%3DZen%2BKurenaido;fontSize=30;rotation=-180;" parent="lzjFIzp38_JWi-WorDkD-1" vertex="1">
          <mxGeometry x="75" y="1255" width="330" height="70" as="geometry" />
        </mxCell>
        <mxCell id="F5qAbJsgprCfH60M3Ue3-2" style="edgeStyle=orthogonalEdgeStyle;rounded=0;orthogonalLoop=1;jettySize=auto;html=1;exitX=0.5;exitY=1;exitDx=0;exitDy=0;entryX=0.5;entryY=0;entryDx=0;entryDy=0;fontFamily=Zen Kurenaido;fontSource=https%3A%2F%2Ffonts.googleapis.com%2Fcss%3Ffamily%3DZen%2BKurenaido;fontSize=30;" parent="lzjFIzp38_JWi-WorDkD-1" source="2-fjItUPFs_lUWctYt32-8" target="F5qAbJsgprCfH60M3Ue3-1" edge="1">
          <mxGeometry relative="1" as="geometry" />
        </mxCell>
        <mxCell id="2-fjItUPFs_lUWctYt32-8" value="&lt;font face=&quot;Zen Kurenaido&quot;&gt;&lt;span style=&quot;font-size: 30px&quot;&gt;機体をライン&lt;br&gt;中央に寄せる&lt;/span&gt;&lt;/font&gt;" style="rounded=0;whiteSpace=wrap;html=1;" parent="lzjFIzp38_JWi-WorDkD-1" vertex="1">
          <mxGeometry x="120" y="1375" width="240" height="90" as="geometry" />
        </mxCell>
        <mxCell id="F5qAbJsgprCfH60M3Ue3-1" value="&lt;font face=&quot;Zen Kurenaido&quot;&gt;&lt;span style=&quot;font-size: 30px&quot;&gt;進行方向を向く&lt;/span&gt;&lt;/font&gt;" style="rounded=0;whiteSpace=wrap;html=1;" parent="lzjFIzp38_JWi-WorDkD-1" vertex="1">
          <mxGeometry x="120" y="1515" width="240" height="70" as="geometry" />
        </mxCell>
        <mxCell id="2O326BY7DRiCdXA4pq5x-0" value="&lt;span style=&quot;font-size: 35px&quot;&gt;Yes&lt;/span&gt;" style="text;html=1;strokeColor=none;fillColor=none;align=center;verticalAlign=middle;whiteSpace=wrap;rounded=0;labelBackgroundColor=none;labelBorderColor=none;fontFamily=Dancing Script;fontSource=https%3A%2F%2Ffonts.googleapis.com%2Fcss%3Ffamily%3DDancing%2BScript;fontSize=45;" parent="lzjFIzp38_JWi-WorDkD-1" vertex="1">
          <mxGeometry x="405" y="565" width="60" height="30" as="geometry" />
        </mxCell>
        <mxCell id="M465tM8zi6B7Sjv3-7ow-0" value="" style="whiteSpace=wrap;html=1;aspect=fixed;fontFamily=Zen Kurenaido;fontSource=https%3A%2F%2Ffonts.googleapis.com%2Fcss%3Ffamily%3DZen%2BKurenaido;fontSize=30;fillColor=#A680B8;strokeColor=none;" parent="lzjFIzp38_JWi-WorDkD-1" vertex="1">
          <mxGeometry x="710" y="285" width="50" height="50" as="geometry" />
        </mxCell>
        <mxCell id="joO7-Ot1DuYoixzRyItP-4" value="" style="endArrow=classic;html=1;rounded=0;fontFamily=Zen Kurenaido;fontSource=https%3A%2F%2Ffonts.googleapis.com%2Fcss%3Ffamily%3DZen%2BKurenaido;fontSize=30;strokeColor=#FFFF00;strokeWidth=6;" parent="lzjFIzp38_JWi-WorDkD-1" edge="1">
          <mxGeometry width="50" height="50" relative="1" as="geometry">
            <mxPoint x="730" y="360" as="sourcePoint" />
            <mxPoint x="640" y="360" as="targetPoint" />
          </mxGeometry>
        </mxCell>
        <mxCell id="joO7-Ot1DuYoixzRyItP-5" value="" style="curved=1;endArrow=classic;html=1;rounded=0;fontFamily=Zen Kurenaido;fontSource=https%3A%2F%2Ffonts.googleapis.com%2Fcss%3Ffamily%3DZen%2BKurenaido;fontSize=30;strokeColor=#FFFF00;strokeWidth=6;entryX=0.158;entryY=0.957;entryDx=0;entryDy=0;entryPerimeter=0;" parent="lzjFIzp38_JWi-WorDkD-1" target="joO7-Ot1DuYoixzRyItP-0" edge="1">
          <mxGeometry width="50" height="50" relative="1" as="geometry">
            <mxPoint x="650" y="340" as="sourcePoint" />
            <mxPoint x="570" y="260" as="targetPoint" />
            <Array as="points">
              <mxPoint x="650" y="250" />
            </Array>
          </mxGeometry>
        </mxCell>
        <mxCell id="5Ttiy7OdWjMoygEAC1fM-0" value="&lt;font face=&quot;Zen Kurenaido&quot; data-font-src=&quot;https://fonts.googleapis.com/css?family=Zen+Kurenaido&quot;&gt;a&lt;/font&gt;" style="text;html=1;strokeColor=none;fillColor=none;align=center;verticalAlign=middle;whiteSpace=wrap;rounded=0;" parent="lzjFIzp38_JWi-WorDkD-1" vertex="1">
          <mxGeometry x="670" y="335" width="30" height="30" as="geometry" />
        </mxCell>
        <mxCell id="5Ttiy7OdWjMoygEAC1fM-2" value="wall" style="rounded=0;whiteSpace=wrap;html=1;" parent="lzjFIzp38_JWi-WorDkD-1" vertex="1">
          <mxGeometry x="780" y="190" width="30" height="285" as="geometry" />
        </mxCell>
        <mxCell id="5Ttiy7OdWjMoygEAC1fM-3" value="" style="endArrow=classic;html=1;rounded=0;fontFamily=Zen Kurenaido;fontSource=https%3A%2F%2Ffonts.googleapis.com%2Fcss%3Ffamily%3DZen%2BKurenaido;fontSize=30;strokeColor=#99CCFF;strokeWidth=5;" parent="lzjFIzp38_JWi-WorDkD-1" edge="1">
          <mxGeometry width="50" height="50" relative="1" as="geometry">
            <mxPoint x="738" y="359.67" as="sourcePoint" />
            <mxPoint x="778" y="359.67" as="targetPoint" />
          </mxGeometry>
        </mxCell>
        <mxCell id="5Ttiy7OdWjMoygEAC1fM-4" value="&lt;font face=&quot;Zen Kurenaido&quot; data-font-src=&quot;https://fonts.googleapis.com/css?family=Zen+Kurenaido&quot;&gt;b&lt;/font&gt;" style="text;html=1;strokeColor=none;fillColor=none;align=center;verticalAlign=middle;whiteSpace=wrap;rounded=0;" parent="lzjFIzp38_JWi-WorDkD-1" vertex="1">
          <mxGeometry x="736" y="335" width="30" height="30" as="geometry" />
        </mxCell>
        <mxCell id="5Ttiy7OdWjMoygEAC1fM-5" value="" style="endArrow=classic;html=1;rounded=0;fontFamily=Zen Kurenaido;fontSource=https%3A%2F%2Ffonts.googleapis.com%2Fcss%3Ffamily%3DZen%2BKurenaido;fontSize=30;strokeColor=#99CCFF;strokeWidth=5;" parent="lzjFIzp38_JWi-WorDkD-1" edge="1">
          <mxGeometry width="50" height="50" relative="1" as="geometry">
            <mxPoint x="777" y="385.00000000000006" as="sourcePoint" />
            <mxPoint x="642" y="385" as="targetPoint" />
          </mxGeometry>
        </mxCell>
        <mxCell id="5Ttiy7OdWjMoygEAC1fM-6" value="&lt;font face=&quot;Zen Kurenaido&quot; data-font-src=&quot;https://fonts.googleapis.com/css?family=Zen+Kurenaido&quot;&gt;a+b&lt;/font&gt;" style="text;html=1;strokeColor=none;fillColor=none;align=center;verticalAlign=middle;whiteSpace=wrap;rounded=0;" parent="lzjFIzp38_JWi-WorDkD-1" vertex="1">
          <mxGeometry x="690" y="385" width="30" height="30" as="geometry" />
        </mxCell>
      </root>
    </mxGraphModel>
  </diagram>
  <diagram id="RTInS8mF9SbC43dsUjzd" name="turning on green points">
    <mxGraphModel dx="1422" dy="800" grid="1" gridSize="10" guides="1" tooltips="1" connect="1" arrows="1" fold="1" page="1" pageScale="1" pageWidth="900" pageHeight="1600" math="0" shadow="0">
      <root>
        <mxCell id="KjK_Z0LQEkvtYtEkB7Ns-0" />
        <mxCell id="KjK_Z0LQEkvtYtEkB7Ns-1" parent="KjK_Z0LQEkvtYtEkB7Ns-0" />
        <mxCell id="C1KQm-P5eJGY0LRNIjqD-0" value="右に曲がるときはこれと逆のことをしよう‼" style="text;html=1;strokeColor=none;fillColor=none;align=center;verticalAlign=middle;whiteSpace=wrap;rounded=0;fontFamily=Zen Kurenaido;fontSource=https%3A%2F%2Ffonts.googleapis.com%2Fcss%3Ffamily%3DZen%2BKurenaido;fontSize=30;" parent="KjK_Z0LQEkvtYtEkB7Ns-1" vertex="1">
          <mxGeometry x="620" y="30" width="250" height="120" as="geometry" />
        </mxCell>
        <mxCell id="sjyrK7E-YwAAPcLMGP7d-0" value="" style="rounded=0;whiteSpace=wrap;html=1;fontFamily=Zen Kurenaido;fontSource=https%3A%2F%2Ffonts.googleapis.com%2Fcss%3Ffamily%3DZen%2BKurenaido;fontSize=30;fillColor=#000000;" parent="KjK_Z0LQEkvtYtEkB7Ns-1" vertex="1">
          <mxGeometry x="640" y="200" width="240" height="20" as="geometry" />
        </mxCell>
        <mxCell id="sjyrK7E-YwAAPcLMGP7d-1" value="" style="rounded=0;whiteSpace=wrap;html=1;fontFamily=Zen Kurenaido;fontSource=https%3A%2F%2Ffonts.googleapis.com%2Fcss%3Ffamily%3DZen%2BKurenaido;fontSize=30;fillColor=#000000;rotation=90;" parent="KjK_Z0LQEkvtYtEkB7Ns-1" vertex="1">
          <mxGeometry x="640" y="260" width="240" height="20" as="geometry" />
        </mxCell>
        <mxCell id="sjyrK7E-YwAAPcLMGP7d-3" value="" style="rounded=0;whiteSpace=wrap;html=1;fontFamily=Zen Kurenaido;fontSource=https%3A%2F%2Ffonts.googleapis.com%2Fcss%3Ffamily%3DZen%2BKurenaido;fontSize=30;fillColor=#00FF00;strokeColor=none;" parent="KjK_Z0LQEkvtYtEkB7Ns-1" vertex="1">
          <mxGeometry x="730" y="220" width="20" height="20" as="geometry" />
        </mxCell>
        <mxCell id="sjyrK7E-YwAAPcLMGP7d-4" value="" style="rounded=0;whiteSpace=wrap;html=1;fontFamily=Zen Kurenaido;fontSource=https%3A%2F%2Ffonts.googleapis.com%2Fcss%3Ffamily%3DZen%2BKurenaido;fontSize=30;fillColor=#00FF00;strokeColor=none;" parent="KjK_Z0LQEkvtYtEkB7Ns-1" vertex="1">
          <mxGeometry x="770" y="180" width="20" height="20" as="geometry" />
        </mxCell>
        <mxCell id="sjyrK7E-YwAAPcLMGP7d-5" value="" style="rounded=0;whiteSpace=wrap;html=1;fontFamily=Zen Kurenaido;fontSource=https%3A%2F%2Ffonts.googleapis.com%2Fcss%3Ffamily%3DZen%2BKurenaido;fontSize=30;fillColor=#00FF00;strokeColor=none;" parent="KjK_Z0LQEkvtYtEkB7Ns-1" vertex="1">
          <mxGeometry x="730" y="180" width="20" height="20" as="geometry" />
        </mxCell>
        <mxCell id="jJSoMeY-QnJxaIFxlc56-1" style="edgeStyle=orthogonalEdgeStyle;rounded=0;orthogonalLoop=1;jettySize=auto;html=1;exitX=0.5;exitY=1;exitDx=0;exitDy=0;entryX=0.5;entryY=0;entryDx=0;entryDy=0;entryPerimeter=0;fontFamily=Zen Kurenaido;fontSource=https%3A%2F%2Ffonts.googleapis.com%2Fcss%3Ffamily%3DZen%2BKurenaido;fontSize=30;" parent="KjK_Z0LQEkvtYtEkB7Ns-1" source="OUkZGwtk5-81OdShh-iD-0" target="jJSoMeY-QnJxaIFxlc56-0" edge="1">
          <mxGeometry relative="1" as="geometry" />
        </mxCell>
        <mxCell id="OUkZGwtk5-81OdShh-iD-0" value="&lt;font face=&quot;zen kurenaido&quot;&gt;&lt;span style=&quot;font-size: 35px&quot;&gt;左折&lt;/span&gt;&lt;/font&gt;" style="rounded=1;whiteSpace=wrap;html=1;arcSize=50;" parent="KjK_Z0LQEkvtYtEkB7Ns-1" vertex="1">
          <mxGeometry x="120" y="45" width="240" height="80" as="geometry" />
        </mxCell>
        <mxCell id="uUl8MivMgvo9SRz3w5TR-1" style="edgeStyle=orthogonalEdgeStyle;rounded=0;orthogonalLoop=1;jettySize=auto;html=1;exitX=0.5;exitY=1;exitDx=0;exitDy=0;exitPerimeter=0;entryX=0.5;entryY=0;entryDx=0;entryDy=0;fontFamily=Zen Kurenaido;fontSource=https%3A%2F%2Ffonts.googleapis.com%2Fcss%3Ffamily%3DZen%2BKurenaido;fontSize=30;" parent="KjK_Z0LQEkvtYtEkB7Ns-1" source="jJSoMeY-QnJxaIFxlc56-0" target="uUl8MivMgvo9SRz3w5TR-0" edge="1">
          <mxGeometry relative="1" as="geometry" />
        </mxCell>
        <mxCell id="jJSoMeY-QnJxaIFxlc56-0" value="S2&amp;amp;S3が緑でないand&lt;br&gt;移動距離がc以下" style="strokeWidth=1;html=1;shape=mxgraph.flowchart.loop_limit;whiteSpace=wrap;fontFamily=Zen Kurenaido;fontSource=https%3A%2F%2Ffonts.googleapis.com%2Fcss%3Ffamily%3DZen%2BKurenaido;fontSize=30;rotation=0;" parent="KjK_Z0LQEkvtYtEkB7Ns-1" vertex="1">
          <mxGeometry x="37.5" y="170" width="405" height="100" as="geometry" />
        </mxCell>
        <mxCell id="jJSoMeY-QnJxaIFxlc56-3" value="緑を感知した位置から&lt;br&gt;機体を交差点中央下で持ってくるまでの距離をcとする" style="text;html=1;strokeColor=none;fillColor=none;align=center;verticalAlign=middle;whiteSpace=wrap;rounded=0;fontFamily=Zen Kurenaido;fontSource=https%3A%2F%2Ffonts.googleapis.com%2Fcss%3Ffamily%3DZen%2BKurenaido;fontSize=30;" parent="KjK_Z0LQEkvtYtEkB7Ns-1" vertex="1">
          <mxGeometry x="550" y="400" width="320" height="200" as="geometry" />
        </mxCell>
        <mxCell id="uUl8MivMgvo9SRz3w5TR-3" style="edgeStyle=orthogonalEdgeStyle;rounded=0;orthogonalLoop=1;jettySize=auto;html=1;exitX=0.5;exitY=1;exitDx=0;exitDy=0;entryX=0.5;entryY=1;entryDx=0;entryDy=0;entryPerimeter=0;fontFamily=Zen Kurenaido;fontSource=https%3A%2F%2Ffonts.googleapis.com%2Fcss%3Ffamily%3DZen%2BKurenaido;fontSize=30;" parent="KjK_Z0LQEkvtYtEkB7Ns-1" source="uUl8MivMgvo9SRz3w5TR-0" target="uUl8MivMgvo9SRz3w5TR-2" edge="1">
          <mxGeometry relative="1" as="geometry" />
        </mxCell>
        <mxCell id="uUl8MivMgvo9SRz3w5TR-0" value="進む" style="rounded=0;whiteSpace=wrap;html=1;fontFamily=Zen Kurenaido;fontSource=https%3A%2F%2Ffonts.googleapis.com%2Fcss%3Ffamily%3DZen%2BKurenaido;fontSize=30;fillColor=#FFFFFF;" parent="KjK_Z0LQEkvtYtEkB7Ns-1" vertex="1">
          <mxGeometry x="180" y="320" width="120" height="60" as="geometry" />
        </mxCell>
        <mxCell id="uUl8MivMgvo9SRz3w5TR-5" style="edgeStyle=orthogonalEdgeStyle;rounded=0;orthogonalLoop=1;jettySize=auto;html=1;exitX=0.5;exitY=0;exitDx=0;exitDy=0;exitPerimeter=0;entryX=0.5;entryY=0;entryDx=0;entryDy=0;fontFamily=Zen Kurenaido;fontSource=https%3A%2F%2Ffonts.googleapis.com%2Fcss%3Ffamily%3DZen%2BKurenaido;fontSize=30;" parent="KjK_Z0LQEkvtYtEkB7Ns-1" source="uUl8MivMgvo9SRz3w5TR-2" target="uUl8MivMgvo9SRz3w5TR-4" edge="1">
          <mxGeometry relative="1" as="geometry" />
        </mxCell>
        <mxCell id="uUl8MivMgvo9SRz3w5TR-2" value="" style="strokeWidth=1;html=1;shape=mxgraph.flowchart.loop_limit;whiteSpace=wrap;fontFamily=Zen Kurenaido;fontSource=https%3A%2F%2Ffonts.googleapis.com%2Fcss%3Ffamily%3DZen%2BKurenaido;fontSize=30;rotation=-180;" parent="KjK_Z0LQEkvtYtEkB7Ns-1" vertex="1">
          <mxGeometry x="37.5" y="430" width="405" height="100" as="geometry" />
        </mxCell>
        <mxCell id="AAQDJvd80T3ScyrP6bM7-1" style="edgeStyle=orthogonalEdgeStyle;rounded=0;orthogonalLoop=1;jettySize=auto;html=1;exitX=1;exitY=0.5;exitDx=0;exitDy=0;fontFamily=Zen Kurenaido;fontSource=https%3A%2F%2Ffonts.googleapis.com%2Fcss%3Ffamily%3DZen%2BKurenaido;fontSize=30;" parent="KjK_Z0LQEkvtYtEkB7Ns-1" source="uUl8MivMgvo9SRz3w5TR-4" target="AAQDJvd80T3ScyrP6bM7-0" edge="1">
          <mxGeometry relative="1" as="geometry" />
        </mxCell>
        <mxCell id="22PYrrCWXujZy2KBcpE--1" style="edgeStyle=orthogonalEdgeStyle;rounded=0;orthogonalLoop=1;jettySize=auto;html=1;exitX=0.5;exitY=1;exitDx=0;exitDy=0;entryX=0.5;entryY=0;entryDx=0;entryDy=0;fontFamily=Zen Kurenaido;fontSource=https%3A%2F%2Ffonts.googleapis.com%2Fcss%3Ffamily%3DZen%2BKurenaido;fontSize=30;strokeColor=#000000;strokeWidth=1;" parent="KjK_Z0LQEkvtYtEkB7Ns-1" source="uUl8MivMgvo9SRz3w5TR-4" target="22PYrrCWXujZy2KBcpE--0" edge="1">
          <mxGeometry relative="1" as="geometry" />
        </mxCell>
        <mxCell id="uUl8MivMgvo9SRz3w5TR-4" value="S2&amp;amp;S3が緑" style="rhombus;whiteSpace=wrap;html=1;fontFamily=Zen Kurenaido;fontSource=https%3A%2F%2Ffonts.googleapis.com%2Fcss%3Ffamily%3DZen%2BKurenaido;fontSize=30;fillColor=#FFFFFF;" parent="KjK_Z0LQEkvtYtEkB7Ns-1" vertex="1">
          <mxGeometry x="105" y="590" width="270" height="140" as="geometry" />
        </mxCell>
        <mxCell id="AAQDJvd80T3ScyrP6bM7-0" value="&lt;font face=&quot;Zen Kurenaido&quot;&gt;&lt;span style=&quot;font-size: 30px&quot;&gt;Uターン&lt;/span&gt;&lt;/font&gt;" style="shape=process;whiteSpace=wrap;html=1;backgroundOutline=1;labelBackgroundColor=none;labelBorderColor=none;fontFamily=Dancing Script;fontSource=https%3A%2F%2Ffonts.googleapis.com%2Fcss%3Ffamily%3DDancing%2BScript;fontSize=18;rounded=0;" parent="KjK_Z0LQEkvtYtEkB7Ns-1" vertex="1">
          <mxGeometry x="450" y="620" width="250" height="80" as="geometry" />
        </mxCell>
        <mxCell id="Bt2Gd-DlW_nVGuDoBFEe-0" value="&lt;span style=&quot;font-size: 35px&quot;&gt;Yes&lt;/span&gt;" style="text;html=1;strokeColor=none;fillColor=none;align=center;verticalAlign=middle;whiteSpace=wrap;rounded=0;labelBackgroundColor=none;labelBorderColor=none;fontFamily=Dancing Script;fontSource=https%3A%2F%2Ffonts.googleapis.com%2Fcss%3Ffamily%3DDancing%2BScript;fontSize=45;" parent="KjK_Z0LQEkvtYtEkB7Ns-1" vertex="1">
          <mxGeometry x="375" y="620" width="60" height="30" as="geometry" />
        </mxCell>
        <mxCell id="79jGBMM3ia03z-skCyEd-3" value="" style="edgeStyle=segmentEdgeStyle;endArrow=classic;html=1;rounded=0;fontFamily=Zen Kurenaido;fontSource=https%3A%2F%2Ffonts.googleapis.com%2Fcss%3Ffamily%3DZen%2BKurenaido;fontSize=30;strokeColor=#FFFF00;strokeWidth=6;" parent="KjK_Z0LQEkvtYtEkB7Ns-1" edge="1">
          <mxGeometry width="50" height="50" relative="1" as="geometry">
            <mxPoint x="810.0000000000005" y="210" as="sourcePoint" />
            <mxPoint x="760.0000000000005" y="160" as="targetPoint" />
          </mxGeometry>
        </mxCell>
        <mxCell id="79jGBMM3ia03z-skCyEd-6" value="" style="edgeStyle=segmentEdgeStyle;endArrow=classic;html=1;rounded=0;fontFamily=Zen Kurenaido;fontSource=https%3A%2F%2Ffonts.googleapis.com%2Fcss%3Ffamily%3DZen%2BKurenaido;fontSize=30;strokeColor=#CC0000;strokeWidth=6;" parent="KjK_Z0LQEkvtYtEkB7Ns-1" edge="1">
          <mxGeometry width="50" height="50" relative="1" as="geometry">
            <mxPoint x="760" y="257.97" as="sourcePoint" />
            <mxPoint x="700" y="217.97" as="targetPoint" />
            <Array as="points">
              <mxPoint x="760" y="267.97" />
              <mxPoint x="760" y="217.97" />
            </Array>
          </mxGeometry>
        </mxCell>
        <mxCell id="79jGBMM3ia03z-skCyEd-7" value="" style="edgeStyle=elbowEdgeStyle;elbow=horizontal;endArrow=classic;html=1;rounded=0;fontFamily=Zen Kurenaido;fontSource=https%3A%2F%2Ffonts.googleapis.com%2Fcss%3Ffamily%3DZen%2BKurenaido;fontSize=30;strokeColor=#9999FF;strokeWidth=6;" parent="KjK_Z0LQEkvtYtEkB7Ns-1" edge="1">
          <mxGeometry width="50" height="50" relative="1" as="geometry">
            <mxPoint x="663" y="234" as="sourcePoint" />
            <mxPoint x="663" y="194" as="targetPoint" />
            <Array as="points">
              <mxPoint x="743" y="234" />
            </Array>
          </mxGeometry>
        </mxCell>
        <mxCell id="79jGBMM3ia03z-skCyEd-9" value="" style="edgeStyle=segmentEdgeStyle;endArrow=classic;html=1;rounded=0;fontFamily=Zen Kurenaido;fontSource=https%3A%2F%2Ffonts.googleapis.com%2Fcss%3Ffamily%3DZen%2BKurenaido;fontSize=30;strokeColor=#FF00FF;strokeWidth=6;" parent="KjK_Z0LQEkvtYtEkB7Ns-1" edge="1">
          <mxGeometry width="50" height="50" relative="1" as="geometry">
            <mxPoint x="744.98" y="160" as="sourcePoint" />
            <mxPoint x="774.98" y="150" as="targetPoint" />
            <Array as="points">
              <mxPoint x="744.98" y="190" />
              <mxPoint x="774.98" y="190" />
            </Array>
          </mxGeometry>
        </mxCell>
        <mxCell id="79jGBMM3ia03z-skCyEd-10" value="" style="rounded=0;whiteSpace=wrap;html=1;fontFamily=Zen Kurenaido;fontSource=https%3A%2F%2Ffonts.googleapis.com%2Fcss%3Ffamily%3DZen%2BKurenaido;fontSize=30;fillColor=#000000;" parent="KjK_Z0LQEkvtYtEkB7Ns-1" vertex="1">
          <mxGeometry x="640" y="330" width="240" height="20" as="geometry" />
        </mxCell>
        <mxCell id="79jGBMM3ia03z-skCyEd-11" value="" style="rounded=0;whiteSpace=wrap;html=1;fontFamily=Zen Kurenaido;fontSource=https%3A%2F%2Ffonts.googleapis.com%2Fcss%3Ffamily%3DZen%2BKurenaido;fontSize=30;fillColor=#00FF00;strokeColor=none;" parent="KjK_Z0LQEkvtYtEkB7Ns-1" vertex="1">
          <mxGeometry x="770" y="310" width="20" height="20" as="geometry" />
        </mxCell>
        <mxCell id="79jGBMM3ia03z-skCyEd-12" value="" style="endArrow=classic;html=1;rounded=0;fontFamily=Zen Kurenaido;fontSource=https%3A%2F%2Ffonts.googleapis.com%2Fcss%3Ffamily%3DZen%2BKurenaido;fontSize=30;strokeColor=#CC0000;strokeWidth=6;" parent="KjK_Z0LQEkvtYtEkB7Ns-1" edge="1">
          <mxGeometry width="50" height="50" relative="1" as="geometry">
            <mxPoint x="759.66" y="370" as="sourcePoint" />
            <mxPoint x="759.66" y="280" as="targetPoint" />
          </mxGeometry>
        </mxCell>
        <mxCell id="7dihLkIh11Iz6SqmNKdF-0" style="edgeStyle=orthogonalEdgeStyle;rounded=0;orthogonalLoop=1;jettySize=auto;html=1;exitX=0.5;exitY=1;exitDx=0;exitDy=0;exitPerimeter=0;entryX=0.5;entryY=0;entryDx=0;entryDy=0;fontFamily=Zen Kurenaido;fontSource=https%3A%2F%2Ffonts.googleapis.com%2Fcss%3Ffamily%3DZen%2BKurenaido;fontSize=30;" parent="KjK_Z0LQEkvtYtEkB7Ns-1" source="7dihLkIh11Iz6SqmNKdF-1" target="7dihLkIh11Iz6SqmNKdF-4" edge="1">
          <mxGeometry relative="1" as="geometry" />
        </mxCell>
        <mxCell id="7dihLkIh11Iz6SqmNKdF-1" value="S3が黒でない" style="strokeWidth=1;html=1;shape=mxgraph.flowchart.loop_limit;whiteSpace=wrap;fontFamily=Zen Kurenaido;fontSource=https%3A%2F%2Ffonts.googleapis.com%2Fcss%3Ffamily%3DZen%2BKurenaido;fontSize=30;rotation=0;" parent="KjK_Z0LQEkvtYtEkB7Ns-1" vertex="1">
          <mxGeometry x="102.5" y="910" width="275" height="70" as="geometry" />
        </mxCell>
        <mxCell id="hv-uG3ahsVIkESiNn_Yb-5" style="edgeStyle=orthogonalEdgeStyle;rounded=0;orthogonalLoop=1;jettySize=auto;html=1;exitX=0.5;exitY=0;exitDx=0;exitDy=0;exitPerimeter=0;fontFamily=Zen Kurenaido;fontSource=https%3A%2F%2Ffonts.googleapis.com%2Fcss%3Ffamily%3DZen%2BKurenaido;fontSize=30;strokeColor=#000000;strokeWidth=1;" parent="KjK_Z0LQEkvtYtEkB7Ns-1" source="7dihLkIh11Iz6SqmNKdF-2" target="hv-uG3ahsVIkESiNn_Yb-1" edge="1">
          <mxGeometry relative="1" as="geometry" />
        </mxCell>
        <mxCell id="7dihLkIh11Iz6SqmNKdF-2" value="" style="strokeWidth=1;html=1;shape=mxgraph.flowchart.loop_limit;whiteSpace=wrap;fontFamily=Zen Kurenaido;fontSource=https%3A%2F%2Ffonts.googleapis.com%2Fcss%3Ffamily%3DZen%2BKurenaido;fontSize=30;rotation=-180;" parent="KjK_Z0LQEkvtYtEkB7Ns-1" vertex="1">
          <mxGeometry x="107.5" y="1120" width="265" height="70" as="geometry" />
        </mxCell>
        <mxCell id="7dihLkIh11Iz6SqmNKdF-3" style="edgeStyle=orthogonalEdgeStyle;rounded=0;orthogonalLoop=1;jettySize=auto;html=1;exitX=0.5;exitY=1;exitDx=0;exitDy=0;entryX=0.5;entryY=1;entryDx=0;entryDy=0;entryPerimeter=0;fontFamily=Zen Kurenaido;fontSource=https%3A%2F%2Ffonts.googleapis.com%2Fcss%3Ffamily%3DZen%2BKurenaido;fontSize=30;" parent="KjK_Z0LQEkvtYtEkB7Ns-1" source="7dihLkIh11Iz6SqmNKdF-4" target="7dihLkIh11Iz6SqmNKdF-2" edge="1">
          <mxGeometry relative="1" as="geometry" />
        </mxCell>
        <mxCell id="7dihLkIh11Iz6SqmNKdF-4" value="左回転" style="rounded=0;whiteSpace=wrap;html=1;fontFamily=Zen Kurenaido;fontSource=https%3A%2F%2Ffonts.googleapis.com%2Fcss%3Ffamily%3DZen%2BKurenaido;fontSize=30;" parent="KjK_Z0LQEkvtYtEkB7Ns-1" vertex="1">
          <mxGeometry x="165" y="1020" width="150" height="60" as="geometry" />
        </mxCell>
        <mxCell id="22PYrrCWXujZy2KBcpE--2" style="edgeStyle=orthogonalEdgeStyle;rounded=0;orthogonalLoop=1;jettySize=auto;html=1;exitX=0.5;exitY=1;exitDx=0;exitDy=0;entryX=0.5;entryY=0;entryDx=0;entryDy=0;entryPerimeter=0;fontFamily=Zen Kurenaido;fontSource=https%3A%2F%2Ffonts.googleapis.com%2Fcss%3Ffamily%3DZen%2BKurenaido;fontSize=30;strokeColor=#000000;strokeWidth=1;" parent="KjK_Z0LQEkvtYtEkB7Ns-1" source="22PYrrCWXujZy2KBcpE--0" target="7dihLkIh11Iz6SqmNKdF-1" edge="1">
          <mxGeometry relative="1" as="geometry" />
        </mxCell>
        <mxCell id="22PYrrCWXujZy2KBcpE--0" value="c進む" style="rounded=0;whiteSpace=wrap;html=1;fontFamily=Zen Kurenaido;fontSource=https%3A%2F%2Ffonts.googleapis.com%2Fcss%3Ffamily%3DZen%2BKurenaido;fontSize=30;strokeColor=#000000;strokeWidth=1;fillColor=#FFFFFF;" parent="KjK_Z0LQEkvtYtEkB7Ns-1" vertex="1">
          <mxGeometry x="170" y="780" width="140" height="80" as="geometry" />
        </mxCell>
        <mxCell id="hv-uG3ahsVIkESiNn_Yb-0" style="edgeStyle=orthogonalEdgeStyle;rounded=0;orthogonalLoop=1;jettySize=auto;html=1;exitX=0.5;exitY=1;exitDx=0;exitDy=0;exitPerimeter=0;entryX=0.5;entryY=0;entryDx=0;entryDy=0;fontFamily=Zen Kurenaido;fontSource=https%3A%2F%2Ffonts.googleapis.com%2Fcss%3Ffamily%3DZen%2BKurenaido;fontSize=30;" parent="KjK_Z0LQEkvtYtEkB7Ns-1" source="hv-uG3ahsVIkESiNn_Yb-1" target="hv-uG3ahsVIkESiNn_Yb-4" edge="1">
          <mxGeometry relative="1" as="geometry" />
        </mxCell>
        <mxCell id="hv-uG3ahsVIkESiNn_Yb-1" value="S2が黒でない" style="strokeWidth=1;html=1;shape=mxgraph.flowchart.loop_limit;whiteSpace=wrap;fontFamily=Zen Kurenaido;fontSource=https%3A%2F%2Ffonts.googleapis.com%2Fcss%3Ffamily%3DZen%2BKurenaido;fontSize=30;rotation=0;" parent="KjK_Z0LQEkvtYtEkB7Ns-1" vertex="1">
          <mxGeometry x="102" y="1240" width="275" height="70" as="geometry" />
        </mxCell>
        <mxCell id="efIEPd-T_8BOLQ1EJkLQ-5" style="edgeStyle=orthogonalEdgeStyle;rounded=0;orthogonalLoop=1;jettySize=auto;html=1;exitX=0.5;exitY=0;exitDx=0;exitDy=0;exitPerimeter=0;entryX=0.5;entryY=0;entryDx=0;entryDy=0;entryPerimeter=0;fontFamily=Zen Kurenaido;fontSource=https%3A%2F%2Ffonts.googleapis.com%2Fcss%3Ffamily%3DZen%2BKurenaido;fontSize=30;strokeColor=#000000;strokeWidth=1;" parent="KjK_Z0LQEkvtYtEkB7Ns-1" source="hv-uG3ahsVIkESiNn_Yb-2" target="efIEPd-T_8BOLQ1EJkLQ-1" edge="1">
          <mxGeometry relative="1" as="geometry" />
        </mxCell>
        <mxCell id="hv-uG3ahsVIkESiNn_Yb-2" value="" style="strokeWidth=1;html=1;shape=mxgraph.flowchart.loop_limit;whiteSpace=wrap;fontFamily=Zen Kurenaido;fontSource=https%3A%2F%2Ffonts.googleapis.com%2Fcss%3Ffamily%3DZen%2BKurenaido;fontSize=30;rotation=-180;" parent="KjK_Z0LQEkvtYtEkB7Ns-1" vertex="1">
          <mxGeometry x="107" y="1450" width="265" height="70" as="geometry" />
        </mxCell>
        <mxCell id="hv-uG3ahsVIkESiNn_Yb-3" style="edgeStyle=orthogonalEdgeStyle;rounded=0;orthogonalLoop=1;jettySize=auto;html=1;exitX=0.5;exitY=1;exitDx=0;exitDy=0;entryX=0.5;entryY=1;entryDx=0;entryDy=0;entryPerimeter=0;fontFamily=Zen Kurenaido;fontSource=https%3A%2F%2Ffonts.googleapis.com%2Fcss%3Ffamily%3DZen%2BKurenaido;fontSize=30;" parent="KjK_Z0LQEkvtYtEkB7Ns-1" source="hv-uG3ahsVIkESiNn_Yb-4" target="hv-uG3ahsVIkESiNn_Yb-2" edge="1">
          <mxGeometry relative="1" as="geometry" />
        </mxCell>
        <mxCell id="hv-uG3ahsVIkESiNn_Yb-4" value="左回転" style="rounded=0;whiteSpace=wrap;html=1;fontFamily=Zen Kurenaido;fontSource=https%3A%2F%2Ffonts.googleapis.com%2Fcss%3Ffamily%3DZen%2BKurenaido;fontSize=30;" parent="KjK_Z0LQEkvtYtEkB7Ns-1" vertex="1">
          <mxGeometry x="164.5" y="1350" width="150" height="60" as="geometry" />
        </mxCell>
        <mxCell id="efIEPd-T_8BOLQ1EJkLQ-0" style="edgeStyle=orthogonalEdgeStyle;rounded=0;orthogonalLoop=1;jettySize=auto;html=1;exitX=0.5;exitY=1;exitDx=0;exitDy=0;exitPerimeter=0;entryX=0.5;entryY=0;entryDx=0;entryDy=0;fontFamily=Zen Kurenaido;fontSource=https%3A%2F%2Ffonts.googleapis.com%2Fcss%3Ffamily%3DZen%2BKurenaido;fontSize=30;" parent="KjK_Z0LQEkvtYtEkB7Ns-1" source="efIEPd-T_8BOLQ1EJkLQ-1" target="efIEPd-T_8BOLQ1EJkLQ-4" edge="1">
          <mxGeometry relative="1" as="geometry" />
        </mxCell>
        <mxCell id="efIEPd-T_8BOLQ1EJkLQ-1" value="S2&amp;amp;S3が共に白でない" style="strokeWidth=1;html=1;shape=mxgraph.flowchart.loop_limit;whiteSpace=wrap;fontFamily=Zen Kurenaido;fontSource=https%3A%2F%2Ffonts.googleapis.com%2Fcss%3Ffamily%3DZen%2BKurenaido;fontSize=30;rotation=0;" parent="KjK_Z0LQEkvtYtEkB7Ns-1" vertex="1">
          <mxGeometry x="77.75" y="1570" width="322.25" height="70" as="geometry" />
        </mxCell>
        <mxCell id="efIEPd-T_8BOLQ1EJkLQ-2" value="" style="strokeWidth=1;html=1;shape=mxgraph.flowchart.loop_limit;whiteSpace=wrap;fontFamily=Zen Kurenaido;fontSource=https%3A%2F%2Ffonts.googleapis.com%2Fcss%3Ffamily%3DZen%2BKurenaido;fontSize=30;rotation=-180;" parent="KjK_Z0LQEkvtYtEkB7Ns-1" vertex="1">
          <mxGeometry x="80" y="1780" width="319" height="70" as="geometry" />
        </mxCell>
        <mxCell id="efIEPd-T_8BOLQ1EJkLQ-3" style="edgeStyle=orthogonalEdgeStyle;rounded=0;orthogonalLoop=1;jettySize=auto;html=1;exitX=0.5;exitY=1;exitDx=0;exitDy=0;entryX=0.5;entryY=1;entryDx=0;entryDy=0;entryPerimeter=0;fontFamily=Zen Kurenaido;fontSource=https%3A%2F%2Ffonts.googleapis.com%2Fcss%3Ffamily%3DZen%2BKurenaido;fontSize=30;" parent="KjK_Z0LQEkvtYtEkB7Ns-1" source="efIEPd-T_8BOLQ1EJkLQ-4" target="efIEPd-T_8BOLQ1EJkLQ-2" edge="1">
          <mxGeometry relative="1" as="geometry" />
        </mxCell>
        <mxCell id="efIEPd-T_8BOLQ1EJkLQ-4" value="左回転" style="rounded=0;whiteSpace=wrap;html=1;fontFamily=Zen Kurenaido;fontSource=https%3A%2F%2Ffonts.googleapis.com%2Fcss%3Ffamily%3DZen%2BKurenaido;fontSize=30;" parent="KjK_Z0LQEkvtYtEkB7Ns-1" vertex="1">
          <mxGeometry x="164.5" y="1680" width="150" height="60" as="geometry" />
        </mxCell>
      </root>
    </mxGraphModel>
  </diagram>
  <diagram id="xBJ19_LYAkxX0kHtwtxM" name="U-turn">
    <mxGraphModel dx="1422" dy="800" grid="1" gridSize="10" guides="1" tooltips="1" connect="1" arrows="1" fold="1" page="1" pageScale="1" pageWidth="900" pageHeight="1600" math="0" shadow="0">
      <root>
        <mxCell id="V-KWmL8jKkvyRReVfWaN-0" />
        <mxCell id="V-KWmL8jKkvyRReVfWaN-1" parent="V-KWmL8jKkvyRReVfWaN-0" />
        <mxCell id="V-KWmL8jKkvyRReVfWaN-2" style="edgeStyle=orthogonalEdgeStyle;rounded=0;orthogonalLoop=1;jettySize=auto;html=1;exitX=0.5;exitY=1;exitDx=0;exitDy=0;entryX=0.5;entryY=0;entryDx=0;entryDy=0;entryPerimeter=0;fontFamily=Zen Kurenaido;fontSource=https%3A%2F%2Ffonts.googleapis.com%2Fcss%3Ffamily%3DZen%2BKurenaido;fontSize=30;" parent="V-KWmL8jKkvyRReVfWaN-1" source="V-KWmL8jKkvyRReVfWaN-3" target="V-KWmL8jKkvyRReVfWaN-5" edge="1">
          <mxGeometry relative="1" as="geometry" />
        </mxCell>
        <mxCell id="V-KWmL8jKkvyRReVfWaN-3" value="&lt;font face=&quot;zen kurenaido&quot;&gt;&lt;span style=&quot;font-size: 35px&quot;&gt;Uターン&lt;/span&gt;&lt;/font&gt;" style="rounded=1;whiteSpace=wrap;html=1;arcSize=50;" parent="V-KWmL8jKkvyRReVfWaN-1" vertex="1">
          <mxGeometry x="117.5" y="40" width="240" height="80" as="geometry" />
        </mxCell>
        <mxCell id="V-KWmL8jKkvyRReVfWaN-4" style="edgeStyle=orthogonalEdgeStyle;rounded=0;orthogonalLoop=1;jettySize=auto;html=1;exitX=0.5;exitY=1;exitDx=0;exitDy=0;exitPerimeter=0;entryX=0.5;entryY=0;entryDx=0;entryDy=0;fontFamily=Zen Kurenaido;fontSource=https%3A%2F%2Ffonts.googleapis.com%2Fcss%3Ffamily%3DZen%2BKurenaido;fontSize=30;" parent="V-KWmL8jKkvyRReVfWaN-1" source="V-KWmL8jKkvyRReVfWaN-5" target="V-KWmL8jKkvyRReVfWaN-9" edge="1">
          <mxGeometry relative="1" as="geometry" />
        </mxCell>
        <mxCell id="V-KWmL8jKkvyRReVfWaN-5" value="すべて白以外" style="strokeWidth=1;html=1;shape=mxgraph.flowchart.loop_limit;whiteSpace=wrap;fontFamily=Zen Kurenaido;fontSource=https%3A%2F%2Ffonts.googleapis.com%2Fcss%3Ffamily%3DZen%2BKurenaido;fontSize=30;rotation=0;" parent="V-KWmL8jKkvyRReVfWaN-1" vertex="1">
          <mxGeometry x="100" y="165" width="275" height="70" as="geometry" />
        </mxCell>
        <mxCell id="V-KWmL8jKkvyRReVfWaN-6" style="edgeStyle=orthogonalEdgeStyle;rounded=0;orthogonalLoop=1;jettySize=auto;html=1;exitX=0.5;exitY=0;exitDx=0;exitDy=0;exitPerimeter=0;entryX=0.5;entryY=0;entryDx=0;entryDy=0;entryPerimeter=0;fontFamily=Zen Kurenaido;fontSource=https%3A%2F%2Ffonts.googleapis.com%2Fcss%3Ffamily%3DZen%2BKurenaido;fontSize=30;" parent="V-KWmL8jKkvyRReVfWaN-1" source="V-KWmL8jKkvyRReVfWaN-7" target="V-KWmL8jKkvyRReVfWaN-11" edge="1">
          <mxGeometry relative="1" as="geometry" />
        </mxCell>
        <mxCell id="V-KWmL8jKkvyRReVfWaN-7" value="" style="strokeWidth=1;html=1;shape=mxgraph.flowchart.loop_limit;whiteSpace=wrap;fontFamily=Zen Kurenaido;fontSource=https%3A%2F%2Ffonts.googleapis.com%2Fcss%3Ffamily%3DZen%2BKurenaido;fontSize=30;rotation=-180;" parent="V-KWmL8jKkvyRReVfWaN-1" vertex="1">
          <mxGeometry x="105" y="375" width="265" height="70" as="geometry" />
        </mxCell>
        <mxCell id="V-KWmL8jKkvyRReVfWaN-8" style="edgeStyle=orthogonalEdgeStyle;rounded=0;orthogonalLoop=1;jettySize=auto;html=1;exitX=0.5;exitY=1;exitDx=0;exitDy=0;entryX=0.5;entryY=1;entryDx=0;entryDy=0;entryPerimeter=0;fontFamily=Zen Kurenaido;fontSource=https%3A%2F%2Ffonts.googleapis.com%2Fcss%3Ffamily%3DZen%2BKurenaido;fontSize=30;" parent="V-KWmL8jKkvyRReVfWaN-1" source="V-KWmL8jKkvyRReVfWaN-9" target="V-KWmL8jKkvyRReVfWaN-7" edge="1">
          <mxGeometry relative="1" as="geometry" />
        </mxCell>
        <mxCell id="V-KWmL8jKkvyRReVfWaN-9" value="左回転" style="rounded=0;whiteSpace=wrap;html=1;fontFamily=Zen Kurenaido;fontSource=https%3A%2F%2Ffonts.googleapis.com%2Fcss%3Ffamily%3DZen%2BKurenaido;fontSize=30;" parent="V-KWmL8jKkvyRReVfWaN-1" vertex="1">
          <mxGeometry x="162.5" y="275" width="150" height="60" as="geometry" />
        </mxCell>
        <mxCell id="V-KWmL8jKkvyRReVfWaN-10" style="edgeStyle=orthogonalEdgeStyle;rounded=0;orthogonalLoop=1;jettySize=auto;html=1;exitX=0.5;exitY=1;exitDx=0;exitDy=0;exitPerimeter=0;entryX=0.5;entryY=0;entryDx=0;entryDy=0;fontFamily=Zen Kurenaido;fontSource=https%3A%2F%2Ffonts.googleapis.com%2Fcss%3Ffamily%3DZen%2BKurenaido;fontSize=30;" parent="V-KWmL8jKkvyRReVfWaN-1" source="V-KWmL8jKkvyRReVfWaN-11" target="V-KWmL8jKkvyRReVfWaN-15" edge="1">
          <mxGeometry relative="1" as="geometry" />
        </mxCell>
        <mxCell id="V-KWmL8jKkvyRReVfWaN-11" value="S2が黒でない" style="strokeWidth=1;html=1;shape=mxgraph.flowchart.loop_limit;whiteSpace=wrap;fontFamily=Zen Kurenaido;fontSource=https%3A%2F%2Ffonts.googleapis.com%2Fcss%3Ffamily%3DZen%2BKurenaido;fontSize=30;rotation=0;" parent="V-KWmL8jKkvyRReVfWaN-1" vertex="1">
          <mxGeometry x="100" y="495" width="275" height="70" as="geometry" />
        </mxCell>
        <mxCell id="V-KWmL8jKkvyRReVfWaN-12" style="edgeStyle=orthogonalEdgeStyle;rounded=0;orthogonalLoop=1;jettySize=auto;html=1;exitX=0.5;exitY=0;exitDx=0;exitDy=0;exitPerimeter=0;entryX=0.5;entryY=0;entryDx=0;entryDy=0;entryPerimeter=0;fontFamily=Zen Kurenaido;fontSource=https%3A%2F%2Ffonts.googleapis.com%2Fcss%3Ffamily%3DZen%2BKurenaido;fontSize=30;" parent="V-KWmL8jKkvyRReVfWaN-1" source="V-KWmL8jKkvyRReVfWaN-13" target="V-KWmL8jKkvyRReVfWaN-17" edge="1">
          <mxGeometry relative="1" as="geometry" />
        </mxCell>
        <mxCell id="V-KWmL8jKkvyRReVfWaN-13" value="" style="strokeWidth=1;html=1;shape=mxgraph.flowchart.loop_limit;whiteSpace=wrap;fontFamily=Zen Kurenaido;fontSource=https%3A%2F%2Ffonts.googleapis.com%2Fcss%3Ffamily%3DZen%2BKurenaido;fontSize=30;rotation=-180;" parent="V-KWmL8jKkvyRReVfWaN-1" vertex="1">
          <mxGeometry x="105" y="705" width="265" height="70" as="geometry" />
        </mxCell>
        <mxCell id="V-KWmL8jKkvyRReVfWaN-14" style="edgeStyle=orthogonalEdgeStyle;rounded=0;orthogonalLoop=1;jettySize=auto;html=1;exitX=0.5;exitY=1;exitDx=0;exitDy=0;entryX=0.5;entryY=1;entryDx=0;entryDy=0;entryPerimeter=0;fontFamily=Zen Kurenaido;fontSource=https%3A%2F%2Ffonts.googleapis.com%2Fcss%3Ffamily%3DZen%2BKurenaido;fontSize=30;" parent="V-KWmL8jKkvyRReVfWaN-1" source="V-KWmL8jKkvyRReVfWaN-15" target="V-KWmL8jKkvyRReVfWaN-13" edge="1">
          <mxGeometry relative="1" as="geometry" />
        </mxCell>
        <mxCell id="V-KWmL8jKkvyRReVfWaN-15" value="左回転" style="rounded=0;whiteSpace=wrap;html=1;fontFamily=Zen Kurenaido;fontSource=https%3A%2F%2Ffonts.googleapis.com%2Fcss%3Ffamily%3DZen%2BKurenaido;fontSize=30;" parent="V-KWmL8jKkvyRReVfWaN-1" vertex="1">
          <mxGeometry x="162.5" y="605" width="150" height="60" as="geometry" />
        </mxCell>
        <mxCell id="V-KWmL8jKkvyRReVfWaN-16" style="edgeStyle=orthogonalEdgeStyle;rounded=0;orthogonalLoop=1;jettySize=auto;html=1;exitX=0.5;exitY=1;exitDx=0;exitDy=0;exitPerimeter=0;entryX=0.5;entryY=0;entryDx=0;entryDy=0;fontFamily=Zen Kurenaido;fontSource=https%3A%2F%2Ffonts.googleapis.com%2Fcss%3Ffamily%3DZen%2BKurenaido;fontSize=30;" parent="V-KWmL8jKkvyRReVfWaN-1" source="V-KWmL8jKkvyRReVfWaN-17" target="V-KWmL8jKkvyRReVfWaN-20" edge="1">
          <mxGeometry relative="1" as="geometry" />
        </mxCell>
        <mxCell id="V-KWmL8jKkvyRReVfWaN-17" value="S2&amp;amp;S3が白" style="strokeWidth=1;html=1;shape=mxgraph.flowchart.loop_limit;whiteSpace=wrap;fontFamily=Zen Kurenaido;fontSource=https%3A%2F%2Ffonts.googleapis.com%2Fcss%3Ffamily%3DZen%2BKurenaido;fontSize=30;rotation=0;" parent="V-KWmL8jKkvyRReVfWaN-1" vertex="1">
          <mxGeometry x="100" y="817" width="275" height="70" as="geometry" />
        </mxCell>
        <mxCell id="V-KWmL8jKkvyRReVfWaN-18" value="" style="strokeWidth=1;html=1;shape=mxgraph.flowchart.loop_limit;whiteSpace=wrap;fontFamily=Zen Kurenaido;fontSource=https%3A%2F%2Ffonts.googleapis.com%2Fcss%3Ffamily%3DZen%2BKurenaido;fontSize=30;rotation=-180;" parent="V-KWmL8jKkvyRReVfWaN-1" vertex="1">
          <mxGeometry x="105" y="1027" width="265" height="70" as="geometry" />
        </mxCell>
        <mxCell id="V-KWmL8jKkvyRReVfWaN-19" style="edgeStyle=orthogonalEdgeStyle;rounded=0;orthogonalLoop=1;jettySize=auto;html=1;exitX=0.5;exitY=1;exitDx=0;exitDy=0;entryX=0.5;entryY=1;entryDx=0;entryDy=0;entryPerimeter=0;fontFamily=Zen Kurenaido;fontSource=https%3A%2F%2Ffonts.googleapis.com%2Fcss%3Ffamily%3DZen%2BKurenaido;fontSize=30;" parent="V-KWmL8jKkvyRReVfWaN-1" source="V-KWmL8jKkvyRReVfWaN-20" target="V-KWmL8jKkvyRReVfWaN-18" edge="1">
          <mxGeometry relative="1" as="geometry" />
        </mxCell>
        <mxCell id="V-KWmL8jKkvyRReVfWaN-20" value="左回転" style="rounded=0;whiteSpace=wrap;html=1;fontFamily=Zen Kurenaido;fontSource=https%3A%2F%2Ffonts.googleapis.com%2Fcss%3Ffamily%3DZen%2BKurenaido;fontSize=30;" parent="V-KWmL8jKkvyRReVfWaN-1" vertex="1">
          <mxGeometry x="162.5" y="927" width="150" height="60" as="geometry" />
        </mxCell>
        <mxCell id="V9uuwt3r0U3rHfOj1zUz-0" value="" style="rounded=0;whiteSpace=wrap;html=1;fontFamily=Zen Kurenaido;fontSource=https%3A%2F%2Ffonts.googleapis.com%2Fcss%3Ffamily%3DZen%2BKurenaido;fontSize=30;fillColor=#000000;" parent="V-KWmL8jKkvyRReVfWaN-1" vertex="1">
          <mxGeometry x="570" y="145" width="240" height="20" as="geometry" />
        </mxCell>
        <mxCell id="V9uuwt3r0U3rHfOj1zUz-1" value="" style="rounded=0;whiteSpace=wrap;html=1;fontFamily=Zen Kurenaido;fontSource=https%3A%2F%2Ffonts.googleapis.com%2Fcss%3Ffamily%3DZen%2BKurenaido;fontSize=30;fillColor=#000000;rotation=90;" parent="V-KWmL8jKkvyRReVfWaN-1" vertex="1">
          <mxGeometry x="570" y="145" width="240" height="20" as="geometry" />
        </mxCell>
        <mxCell id="9Np6vt5Q313QyxMa5pdd-0" value="" style="rounded=0;whiteSpace=wrap;html=1;fontFamily=Zen Kurenaido;fontSource=https%3A%2F%2Ffonts.googleapis.com%2Fcss%3Ffamily%3DZen%2BKurenaido;fontSize=30;fillColor=#00FF00;strokeColor=none;" parent="V-KWmL8jKkvyRReVfWaN-1" vertex="1">
          <mxGeometry x="700" y="165" width="20" height="20" as="geometry" />
        </mxCell>
        <mxCell id="9Np6vt5Q313QyxMa5pdd-1" value="" style="rounded=0;whiteSpace=wrap;html=1;fontFamily=Zen Kurenaido;fontSource=https%3A%2F%2Ffonts.googleapis.com%2Fcss%3Ffamily%3DZen%2BKurenaido;fontSize=30;fillColor=#00FF00;strokeColor=none;" parent="V-KWmL8jKkvyRReVfWaN-1" vertex="1">
          <mxGeometry x="660" y="165" width="20" height="20" as="geometry" />
        </mxCell>
        <mxCell id="j8hKteOFCQYkvUBLABki-0" value="" style="edgeStyle=segmentEdgeStyle;endArrow=classic;html=1;rounded=0;fontFamily=Zen Kurenaido;fontSource=https%3A%2F%2Ffonts.googleapis.com%2Fcss%3Ffamily%3DZen%2BKurenaido;fontSize=30;strokeColor=#FF00FF;strokeWidth=6;" parent="V-KWmL8jKkvyRReVfWaN-1" edge="1">
          <mxGeometry width="50" height="50" relative="1" as="geometry">
            <mxPoint x="670" y="230" as="sourcePoint" />
            <mxPoint x="710" y="230" as="targetPoint" />
            <Array as="points">
              <mxPoint x="670" y="180" />
              <mxPoint x="710" y="180" />
              <mxPoint x="710" y="220" />
            </Array>
          </mxGeometry>
        </mxCell>
        <mxCell id="0B3XBaZiUWX-BGVQ83yV-0" value="" style="endArrow=classic;html=1;rounded=0;fontFamily=Zen Kurenaido;fontSource=https%3A%2F%2Ffonts.googleapis.com%2Fcss%3Ffamily%3DZen%2BKurenaido;fontSize=30;strokeColor=#3399FF;strokeWidth=6;" parent="V-KWmL8jKkvyRReVfWaN-1" edge="1">
          <mxGeometry width="50" height="50" relative="1" as="geometry">
            <mxPoint x="689.75" y="120" as="sourcePoint" />
            <mxPoint x="689.4099999999999" y="260" as="targetPoint" />
          </mxGeometry>
        </mxCell>
      </root>
    </mxGraphModel>
  </diagram>
  <diagram id="lMm5pm1XfXDjZ5qkSd7O" name="turning on black lines">
    <mxGraphModel dx="569" dy="320" grid="1" gridSize="10" guides="1" tooltips="1" connect="1" arrows="1" fold="1" page="1" pageScale="1" pageWidth="900" pageHeight="1600" math="0" shadow="0">
      <root>
        <mxCell id="xGVqSPhiYNFNLZYlCHCF-0" />
        <mxCell id="xGVqSPhiYNFNLZYlCHCF-1" parent="xGVqSPhiYNFNLZYlCHCF-0" />
        <mxCell id="8NYoMPWY2efsycch9M1z-0" value="考えたくない笑" style="text;html=1;strokeColor=none;fillColor=none;align=center;verticalAlign=middle;whiteSpace=wrap;rounded=0;fontFamily=Zen Kurenaido;fontSource=https%3A%2F%2Ffonts.googleapis.com%2Fcss%3Ffamily%3DZen%2BKurenaido;fontSize=30;" parent="xGVqSPhiYNFNLZYlCHCF-1" vertex="1">
          <mxGeometry x="520" y="680" width="370" height="220" as="geometry" />
        </mxCell>
        <mxCell id="wDk_Z4jxX2SzmsQem460-0" value="" style="rounded=0;whiteSpace=wrap;html=1;fontFamily=Zen Kurenaido;fontSource=https%3A%2F%2Ffonts.googleapis.com%2Fcss%3Ffamily%3DZen%2BKurenaido;fontSize=30;fillColor=#000000;rotation=90;" parent="xGVqSPhiYNFNLZYlCHCF-1" vertex="1">
          <mxGeometry x="590" y="320" width="340" height="20" as="geometry" />
        </mxCell>
        <mxCell id="wDk_Z4jxX2SzmsQem460-1" value="" style="rounded=0;whiteSpace=wrap;html=1;fontFamily=Zen Kurenaido;fontSource=https%3A%2F%2Ffonts.googleapis.com%2Fcss%3Ffamily%3DZen%2BKurenaido;fontSize=30;fillColor=#000000;rotation=-180;" parent="xGVqSPhiYNFNLZYlCHCF-1" vertex="1">
          <mxGeometry x="750" y="160" width="130" height="20" as="geometry" />
        </mxCell>
        <mxCell id="exISAn5BrA8wLUOiKW5e-0" value="" style="edgeStyle=segmentEdgeStyle;endArrow=classic;html=1;rounded=0;fontFamily=Zen Kurenaido;fontSource=https%3A%2F%2Ffonts.googleapis.com%2Fcss%3Ffamily%3DZen%2BKurenaido;fontSize=30;strokeColor=#99CCFF;strokeWidth=6;" parent="xGVqSPhiYNFNLZYlCHCF-1" edge="1">
          <mxGeometry width="50" height="50" relative="1" as="geometry">
            <mxPoint x="760.04" y="210.00000000000003" as="sourcePoint" />
            <mxPoint x="820.04" y="170.00000000000003" as="targetPoint" />
            <Array as="points">
              <mxPoint x="760.04" y="220.00000000000003" />
              <mxPoint x="760.04" y="170" />
            </Array>
          </mxGeometry>
        </mxCell>
        <mxCell id="exISAn5BrA8wLUOiKW5e-1" value="" style="rounded=0;whiteSpace=wrap;html=1;fontFamily=Zen Kurenaido;fontSource=https%3A%2F%2Ffonts.googleapis.com%2Fcss%3Ffamily%3DZen%2BKurenaido;fontSize=30;fillColor=#000000;rotation=-180;" parent="xGVqSPhiYNFNLZYlCHCF-1" vertex="1">
          <mxGeometry x="750" y="290" width="130" height="20" as="geometry" />
        </mxCell>
        <mxCell id="7U588vM_lCUwetl-4lDF-0" value="" style="edgeStyle=segmentEdgeStyle;endArrow=classic;html=1;rounded=0;fontFamily=Zen Kurenaido;fontSource=https%3A%2F%2Ffonts.googleapis.com%2Fcss%3Ffamily%3DZen%2BKurenaido;fontSize=30;strokeColor=#99CCFF;strokeWidth=6;" parent="xGVqSPhiYNFNLZYlCHCF-1" edge="1">
          <mxGeometry width="50" height="50" relative="1" as="geometry">
            <mxPoint x="759.5699999999999" y="338" as="sourcePoint" />
            <mxPoint x="759.6499999999999" y="258" as="targetPoint" />
          </mxGeometry>
        </mxCell>
        <mxCell id="7U588vM_lCUwetl-4lDF-1" value="" style="rounded=0;whiteSpace=wrap;html=1;fontFamily=Zen Kurenaido;fontSource=https%3A%2F%2Ffonts.googleapis.com%2Fcss%3Ffamily%3DZen%2BKurenaido;fontSize=30;fillColor=#000000;rotation=-180;" parent="xGVqSPhiYNFNLZYlCHCF-1" vertex="1">
          <mxGeometry x="680" y="410" width="160" height="20" as="geometry" />
        </mxCell>
        <mxCell id="7U588vM_lCUwetl-4lDF-2" value="" style="edgeStyle=segmentEdgeStyle;endArrow=classic;html=1;rounded=0;fontFamily=Zen Kurenaido;fontSource=https%3A%2F%2Ffonts.googleapis.com%2Fcss%3Ffamily%3DZen%2BKurenaido;fontSize=30;strokeColor=#99CCFF;strokeWidth=6;" parent="xGVqSPhiYNFNLZYlCHCF-1" edge="1">
          <mxGeometry width="50" height="50" relative="1" as="geometry">
            <mxPoint x="760.5699999999999" y="457" as="sourcePoint" />
            <mxPoint x="760.6499999999999" y="377" as="targetPoint" />
          </mxGeometry>
        </mxCell>
        <mxCell id="E5I9QKGbKQ5vm_0MJ2Hv-0" value="右に曲がるときはこれと逆のことをしよう‼" style="text;html=1;strokeColor=none;fillColor=none;align=center;verticalAlign=middle;whiteSpace=wrap;rounded=0;fontFamily=Zen Kurenaido;fontSource=https%3A%2F%2Ffonts.googleapis.com%2Fcss%3Ffamily%3DZen%2BKurenaido;fontSize=30;" vertex="1" parent="xGVqSPhiYNFNLZYlCHCF-1">
          <mxGeometry x="635" y="20" width="250" height="120" as="geometry" />
        </mxCell>
        <mxCell id="FmWg6TsoyAbPA3AQ62n6-0" value="&lt;font face=&quot;zen kurenaido&quot;&gt;&lt;span style=&quot;font-size: 35px&quot;&gt;左折&lt;/span&gt;&lt;/font&gt;" style="rounded=1;whiteSpace=wrap;html=1;arcSize=50;" vertex="1" parent="xGVqSPhiYNFNLZYlCHCF-1">
          <mxGeometry x="200" y="80" width="240" height="80" as="geometry" />
        </mxCell>
      </root>
    </mxGraphModel>
  </diagram>
  <diagram id="wUWnUfjTP7J5wnyrM17s" name="rescue">
    <mxGraphModel dx="1422" dy="800" grid="1" gridSize="10" guides="1" tooltips="1" connect="1" arrows="1" fold="1" page="1" pageScale="1" pageWidth="900" pageHeight="1600" math="0" shadow="0">
      <root>
        <mxCell id="WSdwGYwpFgIGEqCA-XN1-0" />
        <mxCell id="WSdwGYwpFgIGEqCA-XN1-1" parent="WSdwGYwpFgIGEqCA-XN1-0" />
        <mxCell id="1SiRNxtB1HtpiyEhwHta-0" value="これを説明するには私の&lt;br&gt;経験が足りなさすぎる" style="text;html=1;strokeColor=none;fillColor=none;align=center;verticalAlign=middle;whiteSpace=wrap;rounded=0;fontFamily=Zen Kurenaido;fontSource=https%3A%2F%2Ffonts.googleapis.com%2Fcss%3Ffamily%3DZen%2BKurenaido;fontSize=30;" parent="WSdwGYwpFgIGEqCA-XN1-1" vertex="1">
          <mxGeometry x="270" y="150" width="370" height="220" as="geometry" />
        </mxCell>
      </root>
    </mxGraphModel>
  </diagram>
  <diagram id="2BxDfbjTlP9mwf68yT67" name="following line">
    <mxGraphModel dx="868" dy="486" grid="1" gridSize="10" guides="1" tooltips="1" connect="1" arrows="1" fold="1" page="1" pageScale="1" pageWidth="900" pageHeight="1600" math="0" shadow="0">
      <root>
        <mxCell id="GIRLFfFuhePqSx1VrsRv-0" />
        <mxCell id="GIRLFfFuhePqSx1VrsRv-1" value="object" parent="GIRLFfFuhePqSx1VrsRv-0" />
        <mxCell id="7rq2z7VtxF0YiHsbR3fL-0" style="edgeStyle=orthogonalEdgeStyle;rounded=1;orthogonalLoop=1;jettySize=auto;html=1;exitX=0.5;exitY=1;exitDx=0;exitDy=0;entryX=0.5;entryY=0;entryDx=0;entryDy=0;fontFamily=Zen Kurenaido;fontSource=https%3A%2F%2Ffonts.googleapis.com%2Fcss%3Ffamily%3DZen%2BKurenaido;fontSize=20;fontColor=#4EC9B0;strokeColor=#000000;strokeWidth=1;" parent="GIRLFfFuhePqSx1VrsRv-1" source="dXdyJbzDdr5dPdfQ4ld6-0" target="s54wSIu8takdsvm1887A-3" edge="1">
          <mxGeometry relative="1" as="geometry" />
        </mxCell>
        <mxCell id="dXdyJbzDdr5dPdfQ4ld6-0" value="&lt;font face=&quot;zen kurenaido&quot;&gt;&lt;span style=&quot;font-size: 35px&quot;&gt;ライントレース&lt;/span&gt;&lt;/font&gt;" style="rounded=1;whiteSpace=wrap;html=1;arcSize=50;" parent="GIRLFfFuhePqSx1VrsRv-1" vertex="1">
          <mxGeometry x="168.75" y="50" width="302.5" height="90" as="geometry" />
        </mxCell>
        <mxCell id="2gRTgtCwHyLk1phvGLAZ-3" value="" style="verticalLabelPosition=bottom;verticalAlign=top;html=1;shape=mxgraph.basic.arc;startAngle=0.7468173254495136;endAngle=0.9685835209054994;fontFamily=Zen Kurenaido;fontSource=https%3A%2F%2Ffonts.googleapis.com%2Fcss%3Ffamily%3DZen%2BKurenaido;fontSize=30;strokeColor=#000000;strokeWidth=21;fillColor=#FFFFFF;" parent="GIRLFfFuhePqSx1VrsRv-1" vertex="1">
          <mxGeometry x="730" y="50" width="160" height="160" as="geometry" />
        </mxCell>
        <mxCell id="Ja_g59XRKJa7HyGw2Lcb-1" value="" style="rounded=0;whiteSpace=wrap;html=1;fontFamily=Zen Kurenaido;fontSource=https%3A%2F%2Ffonts.googleapis.com%2Fcss%3Ffamily%3DZen%2BKurenaido;fontSize=30;fillColor=#000000;rotation=90;" parent="GIRLFfFuhePqSx1VrsRv-1" vertex="1">
          <mxGeometry x="610" y="240" width="240" height="20" as="geometry" />
        </mxCell>
        <mxCell id="Ja_g59XRKJa7HyGw2Lcb-3" value="&lt;font style=&quot;font-size: 20px&quot;&gt;S2&lt;/font&gt;" style="ellipse;whiteSpace=wrap;html=1;aspect=fixed;fontFamily=Zen Kurenaido;fontSource=https%3A%2F%2Ffonts.googleapis.com%2Fcss%3Ffamily%3DZen%2BKurenaido;fontSize=30;strokeColor=#000000;strokeWidth=1;fillColor=#FFFFFF;verticalAlign=bottom;" parent="GIRLFfFuhePqSx1VrsRv-1" vertex="1">
          <mxGeometry x="700" y="121" width="30" height="30" as="geometry" />
        </mxCell>
        <mxCell id="Ja_g59XRKJa7HyGw2Lcb-5" value="&lt;font style=&quot;font-size: 20px&quot;&gt;S3&lt;/font&gt;" style="ellipse;whiteSpace=wrap;html=1;aspect=fixed;fontFamily=Zen Kurenaido;fontSource=https%3A%2F%2Ffonts.googleapis.com%2Fcss%3Ffamily%3DZen%2BKurenaido;fontSize=30;strokeColor=#000000;strokeWidth=1;fillColor=#FFFFFF;verticalAlign=bottom;" parent="GIRLFfFuhePqSx1VrsRv-1" vertex="1">
          <mxGeometry x="750" y="121" width="30" height="30" as="geometry" />
        </mxCell>
        <mxCell id="s54wSIu8takdsvm1887A-3" value="&lt;div style=&quot;background-color: rgb(30 , 30 , 30) ; font-family: &amp;#34;consolas&amp;#34; , &amp;#34;courier new&amp;#34; , monospace ; font-size: 14px ; line-height: 19px&quot;&gt;&lt;div&gt;&lt;div style=&quot;font-family: &amp;#34;consolas&amp;#34; , &amp;#34;courier new&amp;#34; , monospace ; line-height: 19px&quot;&gt;&lt;div&gt;&lt;div style=&quot;font-family: &amp;#34;consolas&amp;#34; , &amp;#34;courier new&amp;#34; , monospace ; line-height: 19px&quot;&gt;&lt;div&gt;&lt;span style=&quot;color: rgb(212 , 212 , 212)&quot;&gt;&lt;span style=&quot;color: #4fc1ff&quot;&gt;CS2&lt;/span&gt; =&amp;nbsp;&lt;font color=&quot;#4ec9b0&quot;&gt;C&lt;/font&gt;&lt;span style=&quot;color: rgb(78 , 201 , 176)&quot;&gt;olor&lt;/span&gt;&lt;span style=&quot;color: rgb(78 , 201 , 176)&quot;&gt;Sensor&lt;/span&gt;(&lt;/span&gt;&lt;font color=&quot;#b5cea8&quot;&gt;INPUT_2&lt;/font&gt;&lt;font color=&quot;#d4d4d4&quot;&gt;)&lt;/font&gt;&lt;/div&gt;&lt;div&gt;&lt;span style=&quot;color: rgb(79 , 193 , 255)&quot;&gt;CS3&lt;/span&gt;&lt;font color=&quot;#d4d4d4&quot;&gt; = &lt;/font&gt;&lt;font color=&quot;#4ec9b0&quot;&gt;C&lt;/font&gt;&lt;span style=&quot;color: rgb(78 , 201 , 176)&quot;&gt;olor&lt;/span&gt;&lt;span style=&quot;color: rgb(78 , 201 , 176)&quot;&gt;Sensor&lt;/span&gt;&lt;font color=&quot;#d4d4d4&quot;&gt;(&lt;/font&gt;&lt;font color=&quot;#b5cea8&quot;&gt;INPUT_3&lt;/font&gt;&lt;font color=&quot;#d4d4d4&quot;&gt;)&lt;/font&gt;&lt;/div&gt;&lt;/div&gt;&lt;/div&gt;&lt;div style=&quot;color: rgb(212 , 212 , 212)&quot;&gt;&lt;div style=&quot;font-family: &amp;#34;consolas&amp;#34; , &amp;#34;courier new&amp;#34; , monospace ; line-height: 19px&quot;&gt;&lt;span style=&quot;color: #9cdcfe&quot;&gt;tank&lt;/span&gt; = MoveTank(OUTPUT_A, OUTPUT_B)&lt;/div&gt;&lt;/div&gt;&lt;div style=&quot;color: rgb(212 , 212 , 212)&quot;&gt;&lt;span style=&quot;color: #9cdcfe&quot;&gt;&lt;br&gt;&lt;/span&gt;&lt;/div&gt;&lt;div style=&quot;color: rgb(212 , 212 , 212)&quot;&gt;    &lt;span style=&quot;color: #9cdcfe&quot;&gt;Kp&lt;/span&gt; = &lt;span style=&quot;color: #b5cea8&quot;&gt;1.5&lt;/span&gt;&lt;/div&gt;&lt;div style=&quot;color: rgb(212 , 212 , 212)&quot;&gt;    &lt;span style=&quot;color: #9cdcfe&quot;&gt;Ki&lt;/span&gt; = &lt;span style=&quot;color: #b5cea8&quot;&gt;0.5&lt;/span&gt;&lt;/div&gt;&lt;div style=&quot;color: rgb(212 , 212 , 212)&quot;&gt;    &lt;span style=&quot;color: #9cdcfe&quot;&gt;Kd&lt;/span&gt; = &lt;span style=&quot;color: #b5cea8&quot;&gt;1.3&lt;/span&gt;&lt;/div&gt;&lt;div style=&quot;color: rgb(212 , 212 , 212)&quot;&gt;    &lt;span style=&quot;color: #9cdcfe&quot;&gt;individual_difference&lt;/span&gt; = &lt;span style=&quot;color: #b5cea8&quot;&gt;0&lt;/span&gt; &lt;span style=&quot;color: #6a9955&quot;&gt;#cs2-cs3&lt;/span&gt;&lt;/div&gt;&lt;div style=&quot;color: rgb(212 , 212 , 212)&quot;&gt;    &lt;span style=&quot;color: #9cdcfe&quot;&gt;errors&lt;/span&gt; = [&lt;span style=&quot;color: #b5cea8&quot;&gt;0&lt;/span&gt;,&lt;span style=&quot;color: #b5cea8&quot;&gt;0&lt;/span&gt;,&lt;span style=&quot;color: #b5cea8&quot;&gt;0&lt;/span&gt;,&lt;span style=&quot;color: #b5cea8&quot;&gt;0&lt;/span&gt;,&lt;span style=&quot;color: #b5cea8&quot;&gt;0&lt;/span&gt;]&lt;/div&gt;&lt;div style=&quot;color: rgb(212 , 212 , 212)&quot;&gt;&lt;br&gt;&lt;/div&gt;&lt;/div&gt;&lt;/div&gt;&lt;div style=&quot;color: rgb(212 , 212 , 212)&quot;&gt;    &lt;span style=&quot;color: #569cd6&quot;&gt;def&lt;/span&gt; &lt;span style=&quot;color: #dcdcaa&quot;&gt;on_pid&lt;/span&gt;(&lt;span style=&quot;color: #9cdcfe&quot;&gt;self&lt;/span&gt;,&lt;span style=&quot;color: #9cdcfe&quot;&gt;base_power&lt;/span&gt;):&lt;/div&gt;&lt;div style=&quot;color: rgb(212 , 212 , 212)&quot;&gt;&lt;span style=&quot;color: #9cdcfe&quot;&gt;　　　　error&lt;/span&gt; = &lt;span style=&quot;color: #4fc1ff&quot;&gt;CS2&lt;/span&gt;.&lt;span style=&quot;color: #dcdcaa&quot;&gt;refrect&lt;/span&gt;&amp;nbsp;- &lt;span style=&quot;color: #4fc1ff&quot;&gt;CS3&lt;/span&gt;.&lt;span style=&quot;color: #dcdcaa&quot;&gt;refrect&lt;/span&gt;&amp;nbsp;- &lt;span style=&quot;color: #9cdcfe&quot;&gt;individual_difference&lt;/span&gt;&lt;/div&gt;&lt;div style=&quot;color: rgb(212 , 212 , 212)&quot;&gt;&lt;span style=&quot;color: #4ec9b0&quot;&gt;　　　　&lt;/span&gt;&lt;span style=&quot;color: #9cdcfe&quot;&gt;errors&lt;/span&gt;.&lt;span style=&quot;color: #dcdcaa&quot;&gt;append&lt;/span&gt;(&lt;span style=&quot;color: #9cdcfe&quot;&gt;error&lt;/span&gt;)&lt;/div&gt;&lt;div style=&quot;color: rgb(212 , 212 , 212)&quot;&gt;        &lt;span style=&quot;color: #c586c0&quot;&gt;　　　　del&lt;/span&gt; &lt;span style=&quot;color: #9cdcfe&quot;&gt;errors&lt;/span&gt;[&lt;span style=&quot;color: #b5cea8&quot;&gt;0&lt;/span&gt;]&lt;/div&gt;&lt;br&gt;&lt;div style=&quot;color: rgb(212 , 212 , 212)&quot;&gt;        &lt;span style=&quot;color: #9cdcfe&quot;&gt;　　　　u&lt;/span&gt; = (&lt;span style=&quot;color: #9cdcfe&quot;&gt;Kp&lt;/span&gt; * &lt;span style=&quot;color: #9cdcfe&quot;&gt;error&lt;/span&gt;) + (&lt;span style=&quot;color: #9cdcfe&quot;&gt;Ki&lt;/span&gt; * &lt;span style=&quot;color: #dcdcaa&quot;&gt;sum&lt;/span&gt;(&lt;span style=&quot;color: #9cdcfe&quot;&gt;errors&lt;/span&gt;)) + (&lt;span style=&quot;color: #9cdcfe&quot;&gt;Kd&lt;/span&gt; * (&lt;span style=&quot;color: #9cdcfe&quot;&gt;error&lt;/span&gt; - &lt;span style=&quot;color: #9cdcfe&quot;&gt;errors&lt;/span&gt;[-&lt;span style=&quot;color: #b5cea8&quot;&gt;1&lt;/span&gt;]))&lt;/div&gt;&lt;div style=&quot;color: rgb(212 , 212 , 212)&quot;&gt;        &lt;span style=&quot;color: #9cdcfe&quot;&gt;　　　　tank&lt;/span&gt;.on(&lt;span style=&quot;color: #9cdcfe&quot;&gt;base_power&lt;/span&gt; + &lt;span style=&quot;color: #9cdcfe&quot;&gt;u&lt;/span&gt;,&lt;span style=&quot;color: #9cdcfe&quot;&gt;base_power&lt;/span&gt; - &lt;span style=&quot;color: #9cdcfe&quot;&gt;u&lt;/span&gt;)&lt;/div&gt;&lt;/div&gt;" style="text;html=1;strokeColor=none;fillColor=none;align=left;verticalAlign=middle;whiteSpace=wrap;rounded=0;fontFamily=Zen Kurenaido;fontSource=https%3A%2F%2Ffonts.googleapis.com%2Fcss%3Ffamily%3DZen%2BKurenaido;fontSize=20;" parent="GIRLFfFuhePqSx1VrsRv-1" vertex="1">
          <mxGeometry x="15" y="190" width="610" height="320" as="geometry" />
        </mxCell>
        <mxCell id="7rq2z7VtxF0YiHsbR3fL-1" value="&lt;font color=&quot;#000000&quot;&gt;PID制御ってフローチャートで&lt;br&gt;説明するのが難しいんだよね&lt;br&gt;数学的な考え方だから&lt;br&gt;とりま黒線に沿って走ると思ってもろて&lt;br&gt;https://www.tsone.co.jp/tech-blog/archives/889&lt;br&gt;https://stemship.com/arduino-jissen-pid/&lt;br&gt;&lt;br&gt;https://docs.google.com/document/d/1WHO3kPrO3Ydp-jhcyBGhG4NeBUxky-zNR5Su0yWwcog/edit?usp=sharing&lt;br&gt;&lt;/font&gt;" style="text;html=1;strokeColor=none;fillColor=none;align=center;verticalAlign=middle;whiteSpace=wrap;rounded=0;fontFamily=Zen Kurenaido;fontSource=https%3A%2F%2Ffonts.googleapis.com%2Fcss%3Ffamily%3DZen%2BKurenaido;fontSize=20;fontColor=#4EC9B0;" parent="GIRLFfFuhePqSx1VrsRv-1" vertex="1">
          <mxGeometry x="120" y="560" width="510" height="260" as="geometry" />
        </mxCell>
      </root>
    </mxGraphModel>
  </diagram>
</mxfile>
